{
.appVersion = "1343";
DisplayStrings = (
"1",
l,
O,
"4",
i,
p,
q,
v
);
customParameters = (
{
name = Axes;
value = (
{
Name = Weight;
Tag = wght;
}
);
}
);
date = "2020-07-25 06:31:50 +0000";
designer = "Eli Heuer";
designerURL = elih.blog;
familyName = "Micro Grotesk";
fontMaster = (
{
ascender = 256;
capHeight = 192;
custom = Thin;
descender = -64;
iconName = Light;
id = "01F631F0-7691-4ABE-A988-72FCE954A13E";
weightValue = 6;
xHeight = 144;
},
{
ascender = 256;
capHeight = 192;
descender = -64;
id = "B7C9AB5D-FCF9-4269-AD58-638C2721BDA6";
weightValue = 22;
xHeight = 144;
},
{
ascender = 256;
capHeight = 192;
custom = Black;
descender = -64;
iconName = Bold;
id = "A72BB3A8-8C9B-4C2C-A511-E8018540F19E";
weightValue = 50;
xHeight = 144;
}
);
glyphs = (
{
glyphname = A;
lastChange = "2020-08-01 04:32:16 +0000";
layers = (
{
layerId = "B7C9AB5D-FCF9-4269-AD58-638C2721BDA6";
paths = (
{
closed = 1;
nodes = (
"30 0 LINE",
"50 56 LINE",
"124 56 LINE",
"142 0 LINE",
"166 0 LINE",
"98 192 LINE",
"74 192 LINE",
"6 0 LINE"
);
},
{
closed = 1;
nodes = (
"86 162 LINE",
"116 76 LINE",
"56 76 LINE"
);
}
);
width = 174;
},
{
layerId = "A72BB3A8-8C9B-4C2C-A511-E8018540F19E";
paths = (
{
closed = 1;
nodes = (
"60 0 LINE",
"71.284 39 LINE",
"132.716 39 LINE",
"144 0 LINE",
"198 0 LINE",
"136 192 LINE",
"68 192 LINE",
"6 0 LINE"
);
},
{
closed = 1;
nodes = (
"102 140 LINE",
"120.806 76 LINE",
"83.194 76 LINE"
);
}
);
width = 204;
},
{
layerId = "01F631F0-7691-4ABE-A988-72FCE954A13E";
paths = (
{
closed = 1;
nodes = (
"13 0 LINE",
"37 67 LINE",
"121 67 LINE",
"145 0 LINE",
"150 0 LINE",
"82 192 LINE",
"76 192 LINE",
"8 0 LINE"
);
},
{
closed = 1;
nodes = (
"79 188 LINE",
"120 71 LINE",
"38 71 LINE"
);
}
);
width = 158;
}
);
unicode = 0041;
},
{
glyphname = B;
lastChange = "2020-08-02 18:52:55 +0000";
layers = (
{
layerId = "B7C9AB5D-FCF9-4269-AD58-638C2721BDA6";
paths = (
{
closed = 1;
nodes = (
"90 0 LINE SMOOTH",
"134 0 OFFCURVE",
"152 21 OFFCURVE",
"152 50 CURVE SMOOTH",
"152 77.668 OFFCURVE",
"134.233 96.628 OFFCURVE",
"114 100 CURVE",
"131 104 OFFCURVE",
"144 115 OFFCURVE",
"144 138 CURVE SMOOTH",
"144 170 OFFCURVE",
"127 192 OFFCURVE",
"88 192 CURVE SMOOTH",
"22 192 LINE",
"22 0 LINE"
);
},
{
closed = 1;
nodes = (
"46 86 LINE",
"90 86 LINE SMOOTH",
"115 86 OFFCURVE",
"130 68 OFFCURVE",
"130 50 CURVE SMOOTH",
"130 33 OFFCURVE",
"119 20 OFFCURVE",
"90 20 CURVE SMOOTH",
"46 20 LINE"
);
},
{
closed = 1;
nodes = (
"46 172 LINE",
"88 172 LINE SMOOTH",
"112 172 OFFCURVE",
"124 155 OFFCURVE",
"124 138 CURVE SMOOTH",
"124 119 OFFCURVE",
"107 106 OFFCURVE",
"86 106 CURVE SMOOTH",
"46 106 LINE"
);
}
);
width = 166;
},
{
layerId = "A72BB3A8-8C9B-4C2C-A511-E8018540F19E";
paths = (
{
closed = 1;
nodes = (
"100 0 LINE SMOOTH",
"140 0 OFFCURVE",
"166.034 22.001 OFFCURVE",
"166 52 CURVE SMOOTH",
"165.967 81.017 OFFCURVE",
"146 99 OFFCURVE",
"122 101 CURVE",
"143 106 OFFCURVE",
"158 125 OFFCURVE",
"158 146 CURVE SMOOTH",
"158 174 OFFCURVE",
"135 192 OFFCURVE",
"92 192 CURVE SMOOTH",
"12 192 LINE",
"12 0 LINE"
);
},
{
closed = 1;
nodes = (
"62 82 LINE",
"86 82 LINE SMOOTH",
"102 82 OFFCURVE",
"112 74 OFFCURVE",
"112 61 CURVE SMOOTH",
"112 48 OFFCURVE",
"103 40 OFFCURVE",
"86 40 CURVE SMOOTH",
"62 40 LINE"
);
},
{
closed = 1;
nodes = (
"62 152 LINE",
"84 152 LINE SMOOTH",
"97.038 152 OFFCURVE",
"106 146 OFFCURVE",
"106 133 CURVE SMOOTH",
"106 122 OFFCURVE",
"97.038 114 OFFCURVE",
"84 114 CURVE SMOOTH",
"62 114 LINE"
);
}
);
width = 170;
},
{
layerId = "01F631F0-7691-4ABE-A988-72FCE954A13E";
paths = (
{
closed = 1;
nodes = (
"94 0 LINE SMOOTH",
"128.015 0 OFFCURVE",
"145 19 OFFCURVE",
"145 48 CURVE SMOOTH",
"145 74 OFFCURVE",
"127.94 90.338 OFFCURVE",
"109 94 CURVE",
"128 99 OFFCURVE",
"139 117 OFFCURVE",
"139 138 CURVE SMOOTH",
"139 168.017 OFFCURVE",
"122.015 186 OFFCURVE",
"88 186 CURVE SMOOTH",
"29 186 LINE",
"29 0 LINE"
);
},
{
closed = 1;
nodes = (
"34 92 LINE",
"94 92 LINE SMOOTH",
"120 92 OFFCURVE",
"140 73.02 OFFCURVE",
"140 48 CURVE SMOOTH",
"140 23 OFFCURVE",
"125 4 OFFCURVE",
"94 4 CURVE SMOOTH",
"34 4 LINE"
);
},
{
closed = 1;
nodes = (
"34 182 LINE",
"88 182 LINE SMOOTH",
"114 182 OFFCURVE",
"134 165.019 OFFCURVE",
"134 138 CURVE SMOOTH",
"134 117 OFFCURVE",
"122.682 97 OFFCURVE",
"94 97 CURVE SMOOTH",
"34 97 LINE"
);
}
);
width = 164;
}
);
unicode = 0042;
},
{
glyphname = C;
lastChange = "2020-08-02 18:54:33 +0000";
layers = (
{
layerId = "B7C9AB5D-FCF9-4269-AD58-638C2721BDA6";
paths = (
{
closed = 1;
nodes = (
"135 -3 OFFCURVE",
"165 20 OFFCURVE",
"172 58 CURVE",
"150 58 LINE",
"144 32 OFFCURVE",
"122 19 OFFCURVE",
"98 18 CURVE SMOOTH",
"64 19 OFFCURVE",
"37 47 OFFCURVE",
"38 96 CURVE",
"37 145 OFFCURVE",
"64 172 OFFCURVE",
"98 172 CURVE SMOOTH",
"122 172 OFFCURVE",
"144 158 OFFCURVE",
"150 132 CURVE",
"172 132 LINE",
"165 170 OFFCURVE",
"135 193 OFFCURVE",
"98 192 CURVE SMOOTH",
"50 193 OFFCURVE",
"15 156 OFFCURVE",
"16 96 CURVE",
"15 36 OFFCURVE",
"50 -3 OFFCURVE",
"98 -2 CURVE SMOOTH"
);
}
);
width = 186;
},
{
layerId = "A72BB3A8-8C9B-4C2C-A511-E8018540F19E";
paths = (
{
closed = 1;
nodes = (
"156.009 -2 OFFCURVE",
"185 37 OFFCURVE",
"186 74 CURVE",
"134 74 LINE",
"132 51 OFFCURVE",
"121.026 42 OFFCURVE",
"102 42 CURVE SMOOTH",
"78 42 OFFCURVE",
"64 60.986 OFFCURVE",
"64 96 CURVE SMOOTH",
"64 129 OFFCURVE",
"77 150 OFFCURVE",
"102 150 CURVE SMOOTH",
"122.025 150 OFFCURVE",
"133 137 OFFCURVE",
"134 118 CURVE",
"186 118 LINE",
"183 167 OFFCURVE",
"148.011 194 OFFCURVE",
"102 194 CURVE SMOOTH",
"51 194 OFFCURVE",
"12 159 OFFCURVE",
"12 96 CURVE SMOOTH",
"12 32.992 OFFCURVE",
"50 -2 OFFCURVE",
"102 -2 CURVE SMOOTH"
);
}
);
width = 196;
},
{
layerId = "01F631F0-7691-4ABE-A988-72FCE954A13E";
paths = (
{
closed = 1;
nodes = (
"139.012 -2 OFFCURVE",
"162 32 OFFCURVE",
"166 58 CURVE",
"160 58 LINE",
"156 33 OFFCURVE",
"134.013 4 OFFCURVE",
"96 4 CURVE SMOOTH",
"57 4 OFFCURVE",
"24 35 OFFCURVE",
"24 94 CURVE SMOOTH",
"24 151 OFFCURVE",
"56.987 182 OFFCURVE",
"96 182 CURVE SMOOTH",
"134 182 OFFCURVE",
"156 153 OFFCURVE",
"160 128 CURVE",
"166 128 LINE",
"162 155 OFFCURVE",
"139 188 OFFCURVE",
"96 188 CURVE SMOOTH",
"49.989 188 OFFCURVE",
"18 150.009 OFFCURVE",
"18 94 CURVE SMOOTH",
"18 36 OFFCURVE",
"50 -2 OFFCURVE",
"96 -2 CURVE SMOOTH"
);
}
);
width = 186;
}
);
unicode = 0043;
},
{
glyphname = D;
lastChange = "2020-08-02 19:01:00 +0000";
layers = (
{
layerId = "B7C9AB5D-FCF9-4269-AD58-638C2721BDA6";
paths = (
{
closed = 1;
nodes = (
"80 0 LINE SMOOTH",
"138.192 0 OFFCURVE",
"168 38 OFFCURVE",
"168 96 CURVE SMOOTH",
"168 154.034 OFFCURVE",
"138.009 192 OFFCURVE",
"82 192 CURVE SMOOTH",
"22 192 LINE",
"22 0 LINE"
);
},
{
closed = 1;
nodes = (
"46 172 LINE",
"82 172 LINE SMOOTH",
"126.011 172 OFFCURVE",
"146 142.043 OFFCURVE",
"146 96 CURVE SMOOTH",
"146 50 OFFCURVE",
"126.01 20 OFFCURVE",
"78 20 CURVE SMOOTH",
"46 20 LINE"
);
}
);
width = 184;
},
{
layerId = "A72BB3A8-8C9B-4C2C-A511-E8018540F19E";
paths = (
{
closed = 1;
nodes = (
"84 0 LINE SMOOTH",
"140 0 OFFCURVE",
"176 39 OFFCURVE",
"176 98 CURVE SMOOTH",
"176 155 OFFCURVE",
"140 192 OFFCURVE",
"82 192 CURVE SMOOTH",
"12 192 LINE",
"12 0 LINE"
);
},
{
closed = 1;
nodes = (
"62 150 LINE",
"80 150 LINE SMOOTH",
"109.017 150 OFFCURVE",
"125 136 OFFCURVE",
"126 98 CURVE SMOOTH",
"125 58 OFFCURVE",
"109.019 42 OFFCURVE",
"82 42 CURVE SMOOTH",
"62 42 LINE"
);
}
);
width = 188;
},
{
layerId = "01F631F0-7691-4ABE-A988-72FCE954A13E";
paths = (
{
closed = 1;
nodes = (
"78 0 LINE SMOOTH",
"132 0 OFFCURVE",
"164 37 OFFCURVE",
"164 97 CURVE SMOOTH",
"164 155 OFFCURVE",
"134 192 OFFCURVE",
"82 192 CURVE SMOOTH",
"29 192 LINE",
"29 0 LINE"
);
},
{
closed = 1;
nodes = (
"34 188 LINE",
"82 188 LINE SMOOTH",
"131 188 OFFCURVE",
"158 151 OFFCURVE",
"158 97 CURVE SMOOTH",
"159 42 OFFCURVE",
"129 4 OFFCURVE",
"78 4 CURVE SMOOTH",
"34 4 LINE"
);
}
);
width = 184;
}
);
unicode = 0044;
},
{
glyphname = E;
lastChange = "2020-08-01 05:28:43 +0000";
layers = (
{
layerId = "B7C9AB5D-FCF9-4269-AD58-638C2721BDA6";
paths = (
{
closed = 1;
nodes = (
"136 0 LINE",
"136 20 LINE",
"46 20 LINE",
"46 88 LINE",
"130 88 LINE",
"130 108 LINE",
"46 108 LINE",
"46 172 LINE",
"134 172 LINE",
"134 192 LINE",
"22 192 LINE",
"22 0 LINE"
);
}
);
width = 154;
},
{
layerId = "A72BB3A8-8C9B-4C2C-A511-E8018540F19E";
paths = (
{
closed = 1;
nodes = (
"146 0 LINE",
"146 40 LINE",
"62 40 LINE",
"62 77 LINE",
"140 77 LINE",
"140 119 LINE",
"62 119 LINE",
"62 152 LINE",
"146 152 LINE",
"146 192 LINE",
"12 192 LINE",
"12 0 LINE"
);
}
);
width = 160;
},
{
layerId = "01F631F0-7691-4ABE-A988-72FCE954A13E";
paths = (
{
closed = 1;
nodes = (
"130 0 LINE",
"130 5 LINE",
"34 5 LINE",
"34 95 LINE",
"122 95 LINE",
"122 100 LINE",
"34 100 LINE",
"34 187 LINE",
"128 187 LINE",
"128 192 LINE",
"29 192 LINE",
"29 0 LINE"
);
}
);
width = 150;
}
);
unicode = 0045;
},
{
glyphname = F;
lastChange = "2020-08-02 19:01:21 +0000";
layers = (
{
layerId = "B7C9AB5D-FCF9-4269-AD58-638C2721BDA6";
paths = (
{
closed = 1;
nodes = (
"46 0 LINE",
"46 88 LINE",
"126 88 LINE",
"126 108 LINE",
"46 108 LINE",
"46 172 LINE",
"134 172 LINE",
"134 192 LINE",
"22 192 LINE",
"22 0 LINE"
);
}
);
width = 152;
},
{
layerId = "A72BB3A8-8C9B-4C2C-A511-E8018540F19E";
paths = (
{
closed = 1;
nodes = (
"62 0 LINE",
"62 77 LINE",
"134 77 LINE",
"134 119 LINE",
"62 119 LINE",
"62 152 LINE",
"142 152 LINE",
"142 192 LINE",
"12 192 LINE",
"12 0 LINE"
);
}
);
width = 150;
},
{
layerId = "01F631F0-7691-4ABE-A988-72FCE954A13E";
paths = (
{
closed = 1;
nodes = (
"34 0 LINE",
"34 96 LINE",
"120 96 LINE",
"120 102 LINE",
"34 102 LINE",
"34 186 LINE",
"130 186 LINE",
"130 192 LINE",
"30 192 LINE",
"30 0 LINE"
);
}
);
width = 150;
}
);
unicode = 0046;
},
{
glyphname = G;
lastChange = "2020-08-02 19:02:20 +0000";
layers = (
{
layerId = "B7C9AB5D-FCF9-4269-AD58-638C2721BDA6";
paths = (
{
closed = 1;
nodes = (
"115.773 -2.711 OFFCURVE",
"133.821 1.126 OFFCURVE",
"156 22 CURVE",
"158 0 LINE",
"176 0 LINE",
"176 96 LINE",
"104 96 LINE",
"104 76 LINE",
"154 76 LINE",
"154 42 OFFCURVE",
"131 19 OFFCURVE",
"98 18 CURVE SMOOTH",
"64 19 OFFCURVE",
"39 47 OFFCURVE",
"38 96 CURVE SMOOTH",
"37 145 OFFCURVE",
"63 174 OFFCURVE",
"98 174 CURVE SMOOTH",
"126 174 OFFCURVE",
"151 156 OFFCURVE",
"154 124 CURVE",
"176 124 LINE",
"173 168 OFFCURVE",
"139.013 194 OFFCURVE",
"98 194 CURVE SMOOTH",
"49 194 OFFCURVE",
"15 156 OFFCURVE",
"16 96 CURVE SMOOTH",
"17 36 OFFCURVE",
"49 -3 OFFCURVE",
"98 -2 CURVE SMOOTH"
);
}
);
width = 192;
},
{
layerId = "A72BB3A8-8C9B-4C2C-A511-E8018540F19E";
paths = (
{
closed = 1;
nodes = (
"123.568 -2 OFFCURVE",
"141.475 6.512 OFFCURVE",
"154 20 CURVE",
"156 0 LINE",
"188 0 LINE",
"188 107 LINE",
"104 107 LINE",
"104 71 LINE",
"138 71 LINE",
"137 55 OFFCURVE",
"126.021 42 OFFCURVE",
"102 42 CURVE SMOOTH",
"77 42 OFFCURVE",
"63.943 63.998 OFFCURVE",
"64 97 CURVE SMOOTH",
"64.061 132.014 OFFCURVE",
"79 150 OFFCURVE",
"104 150 CURVE SMOOTH",
"120.031 150 OFFCURVE",
"132 144 OFFCURVE",
"134 130 CURVE",
"186 130 LINE",
"182 168 OFFCURVE",
"147.012 194 OFFCURVE",
"104 194 CURVE SMOOTH",
"53 194 OFFCURVE",
"12 160 OFFCURVE",
"12 95 CURVE SMOOTH",
"12 36.991 OFFCURVE",
"49 -2 OFFCURVE",
"102 -2 CURVE SMOOTH"
);
}
);
width = 200;
},
{
layerId = "01F631F0-7691-4ABE-A988-72FCE954A13E";
paths = (
{
closed = 1;
nodes = (
"127 -3 OFFCURVE",
"151 13 OFFCURVE",
"162 44 CURVE",
"162 0 LINE",
"168 0 LINE",
"168 84 LINE",
"98 84 LINE",
"98 78 LINE",
"162.025 78 LINE",
"162.216 31.196 OFFCURVE",
"134.455 3.014 OFFCURVE",
"96 4 CURVE SMOOTH",
"52 3 OFFCURVE",
"24 40 OFFCURVE",
"24 94 CURVE SMOOTH",
"24 153 OFFCURVE",
"53 189 OFFCURVE",
"96 188 CURVE SMOOTH",
"134 189 OFFCURVE",
"156 159 OFFCURVE",
"161 134 CURVE",
"166 134 LINE",
"163 161 OFFCURVE",
"139 195 OFFCURVE",
"96 194 CURVE SMOOTH",
"49 195 OFFCURVE",
"19 156 OFFCURVE",
"18 94 CURVE SMOOTH",
"17.064 35.999 OFFCURVE",
"49 -3 OFFCURVE",
"96 -2 CURVE SMOOTH"
);
}
);
width = 192;
}
);
unicode = 0047;
},
{
glyphname = H;
lastChange = "2020-08-02 02:17:01 +0000";
layers = (
{
layerId = "B7C9AB5D-FCF9-4269-AD58-638C2721BDA6";
paths = (
{
closed = 1;
nodes = (
"46 0 LINE",
"46 88 LINE",
"144 88 LINE",
"144 0 LINE",
"168 0 LINE",
"168 192 LINE",
"144 192 LINE",
"144 108 LINE",
"46 108 LINE",
"46 192 LINE",
"22 192 LINE",
"22 0 LINE"
);
}
);
width = 190;
},
{
layerId = "A72BB3A8-8C9B-4C2C-A511-E8018540F19E";
paths = (
{
closed = 1;
nodes = (
"62 0 LINE",
"62 78 LINE",
"130 78 LINE",
"130 0 LINE",
"180 0 LINE",
"180 192 LINE",
"130 192 LINE",
"130 120 LINE",
"62 120 LINE",
"62 192 LINE",
"12 192 LINE",
"12 0 LINE"
);
}
);
width = 192;
},
{
layerId = "01F631F0-7691-4ABE-A988-72FCE954A13E";
paths = (
{
closed = 1;
nodes = (
"36 0 LINE",
"36 96 LINE",
"156 96 LINE",
"156 0 LINE",
"162 0 LINE",
"162 192 LINE",
"156 192 LINE",
"156 102 LINE",
"36 102 LINE",
"36 192 LINE",
"30 192 LINE",
"30 0 LINE"
);
}
);
width = 192;
}
);
unicode = 0048;
},
{
glyphname = I;
lastChange = "2020-08-02 19:02:37 +0000";
layers = (
{
layerId = "B7C9AB5D-FCF9-4269-AD58-638C2721BDA6";
paths = (
{
closed = 1;
nodes = (
"46 0 LINE",
"46 192 LINE",
"22 192 LINE",
"22 0 LINE"
);
}
);
width = 68;
},
{
layerId = "A72BB3A8-8C9B-4C2C-A511-E8018540F19E";
paths = (
{
closed = 1;
nodes = (
"62 0 LINE",
"62 192 LINE",
"12 192 LINE",
"12 0 LINE"
);
}
);
width = 74;
},
{
layerId = "01F631F0-7691-4ABE-A988-72FCE954A13E";
paths = (
{
closed = 1;
nodes = (
"36 0 LINE",
"36 192 LINE",
"30 192 LINE",
"30 0 LINE"
);
}
);
width = 66;
}
);
unicode = 0049;
},
{
glyphname = J;
lastChange = "2020-08-02 19:02:57 +0000";
layers = (
{
layerId = "B7C9AB5D-FCF9-4269-AD58-638C2721BDA6";
paths = (
{
closed = 1;
nodes = (
"96 -3 OFFCURVE",
"116 17 OFFCURVE",
"116 54 CURVE",
"116 192 LINE",
"94 192 LINE",
"94 54 LINE",
"94 30 OFFCURVE",
"83 17 OFFCURVE",
"64 18 CURVE SMOOTH",
"46 17 OFFCURVE",
"33 28 OFFCURVE",
"32 44 CURVE",
"10 44 LINE",
"11 15 OFFCURVE",
"33 -3 OFFCURVE",
"64 -2 CURVE SMOOTH"
);
}
);
width = 138;
},
{
layerId = "A72BB3A8-8C9B-4C2C-A511-E8018540F19E";
paths = (
{
closed = 1;
nodes = (
"109 -3 OFFCURVE",
"138 25 OFFCURVE",
"138 61 CURVE",
"138 192 LINE",
"88 192 LINE",
"88 61 LINE",
"89 47 OFFCURVE",
"83 37 OFFCURVE",
"72 36 CURVE SMOOTH",
"60 37 OFFCURVE",
"54 47 OFFCURVE",
"54 61 CURVE",
"2 61 LINE",
"3 18 OFFCURVE",
"32 -3 OFFCURVE",
"68 -2 CURVE SMOOTH"
);
}
);
width = 150;
},
{
layerId = "01F631F0-7691-4ABE-A988-72FCE954A13E";
paths = (
{
closed = 1;
nodes = (
"83 -2 OFFCURVE",
"104 11.974 OFFCURVE",
"104 50 CURVE SMOOTH",
"104 192 LINE",
"98 192 LINE",
"98 50 LINE SMOOTH",
"98 14.971 OFFCURVE",
"79 4 OFFCURVE",
"58 4 CURVE SMOOTH",
"36.976 4 OFFCURVE",
"20 17 OFFCURVE",
"20 34 CURVE",
"14 34 LINE",
"14 13 OFFCURVE",
"32.98 -2 OFFCURVE",
"58 -2 CURVE SMOOTH"
);
}
);
width = 134;
}
);
unicode = 004A;
},
{
glyphname = K;
lastChange = "2020-08-02 02:20:56 +0000";
layers = (
{
layerId = "B7C9AB5D-FCF9-4269-AD58-638C2721BDA6";
paths = (
{
closed = 1;
nodes = (
"46 0 LINE",
"46 64 LINE",
"68 90 LINE",
"134 0 LINE",
"160 0 LINE",
"82 106 LINE",
"160 192 LINE",
"130 192 LINE",
"46 98 LINE",
"46 192 LINE",
"22 192 LINE",
"22 0 LINE"
);
}
);
width = 166;
},
{
layerId = "A72BB3A8-8C9B-4C2C-A511-E8018540F19E";
paths = (
{
closed = 1;
nodes = (
"62 0 LINE",
"62 51 LINE",
"80 73 LINE",
"122 0 LINE",
"182 0 LINE",
"118 107 LINE",
"180 192 LINE",
"122 192 LINE",
"62 112 LINE",
"62 192 LINE",
"12 192 LINE",
"12 0 LINE"
);
}
);
width = 182;
},
{
layerId = "01F631F0-7691-4ABE-A988-72FCE954A13E";
paths = (
{
closed = 1;
nodes = (
"34 0 LINE",
"34 66 LINE",
"62 98 LINE",
"140 0 LINE",
"148 0 LINE",
"66 102 LINE",
"150 192 LINE",
"142 192 LINE",
"34 74 LINE",
"34 192 LINE",
"29 192 LINE",
"29 0 LINE"
);
}
);
width = 166;
}
);
unicode = 004B;
},
{
glyphname = L;
lastChange = "2020-08-02 02:21:42 +0000";
layers = (
{
layerId = "B7C9AB5D-FCF9-4269-AD58-638C2721BDA6";
paths = (
{
closed = 1;
nodes = (
"132 0 LINE",
"132 20 LINE",
"46 20 LINE",
"46 186 LINE",
"22 186 LINE",
"22 0 LINE"
);
}
);
width = 144;
},
{
layerId = "A72BB3A8-8C9B-4C2C-A511-E8018540F19E";
paths = (
{
closed = 1;
nodes = (
"138 0 LINE",
"138 40 LINE",
"62 40 LINE",
"62 192 LINE",
"12 192 LINE",
"12 0 LINE"
);
}
);
width = 147;
},
{
layerId = "01F631F0-7691-4ABE-A988-72FCE954A13E";
paths = (
{
closed = 1;
nodes = (
"128 0 LINE",
"128 6 LINE",
"34 6 LINE",
"34 192 LINE",
"28 192 LINE",
"28 0 LINE"
);
}
);
width = 144;
}
);
unicode = 004C;
},
{
glyphname = M;
lastChange = "2020-08-02 19:08:49 +0000";
layers = (
{
layerId = "B7C9AB5D-FCF9-4269-AD58-638C2721BDA6";
paths = (
{
closed = 1;
nodes = (
"44 0 LINE",
"44 148 LINE",
"104 0 LINE",
"124 0 LINE",
"184 148 LINE",
"184 0 LINE",
"206 0 LINE",
"206 192 LINE",
"178 192 LINE",
"113 32 LINE",
"50 192 LINE",
"22 192 LINE",
"22 0 LINE"
);
}
);
width = 228;
},
{
layerId = "A72BB3A8-8C9B-4C2C-A511-E8018540F19E";
paths = (
{
closed = 1;
nodes = (
"62 0 LINE",
"62 114 LINE",
"104 2 LINE",
"134 2 LINE",
"178 114 LINE",
"178 0 LINE",
"226 0 LINE",
"226 192 LINE",
"164 192 LINE",
"120 80 LINE",
"74 192 LINE",
"12 192 LINE",
"12 0 LINE"
);
}
);
width = 238;
},
{
layerId = "01F631F0-7691-4ABE-A988-72FCE954A13E";
paths = (
{
closed = 1;
nodes = (
"34 0 LINE",
"34 175 LINE",
"108 0 LINE",
"114 0 LINE",
"186 175 LINE",
"186 0 LINE",
"192 0 LINE",
"192 192 LINE",
"186 192 LINE",
"111 8 LINE",
"34 192 LINE",
"28 192 LINE",
"28 0 LINE"
);
}
);
width = 222;
}
);
unicode = 004D;
},
{
glyphname = N;
lastChange = "2020-08-02 19:30:32 +0000";
layers = (
{
layerId = "B7C9AB5D-FCF9-4269-AD58-638C2721BDA6";
paths = (
{
closed = 1;
nodes = (
"46 0 LINE",
"46 152 LINE",
"148 0 LINE",
"170 0 LINE",
"170 192 LINE",
"148 192 LINE",
"148 40 LINE",
"44 192 LINE",
"22 192 LINE",
"22 0 LINE"
);
}
);
width = 192;
},
{
layerId = "A72BB3A8-8C9B-4C2C-A511-E8018540F19E";
paths = (
{
closed = 1;
nodes = (
"62 0 LINE",
"62 104 LINE",
"130 0 LINE",
"174 0 LINE",
"174 192 LINE",
"122 192 LINE",
"122 94 LINE",
"54 192 LINE",
"12 192 LINE",
"12 0 LINE"
);
}
);
width = 186;
},
{
layerId = "01F631F0-7691-4ABE-A988-72FCE954A13E";
paths = (
{
closed = 1;
nodes = (
"34 0 LINE",
"34 181 LINE",
"163.65 -0.135 LINE",
"168 0 LINE",
"168 192 LINE",
"162 192 LINE",
"162 11 LINE",
"34 192 LINE",
"28 192 LINE",
"28 0 LINE"
);
}
);
width = 192;
}
);
unicode = 004E;
},
{
glyphname = O;
lastChange = "2020-08-03 02:48:56 +0000";
layers = (
{
layerId = "B7C9AB5D-FCF9-4269-AD58-638C2721BDA6";
paths = (
{
closed = 1;
nodes = (
"145 -3 OFFCURVE",
"180 36 OFFCURVE",
"180 96 CURVE",
"180 154 OFFCURVE",
"145 193 OFFCURVE",
"98 192 CURVE SMOOTH",
"50 193 OFFCURVE",
"15 154 OFFCURVE",
"16 96 CURVE",
"15 36 OFFCURVE",
"50 -3 OFFCURVE",
"98 -2 CURVE SMOOTH"
);
},
{
closed = 1;
nodes = (
"64 19 OFFCURVE",
"37 47 OFFCURVE",
"38 96 CURVE",
"37 143 OFFCURVE",
"64 172 OFFCURVE",
"98 172 CURVE SMOOTH",
"131 172 OFFCURVE",
"158 143 OFFCURVE",
"158 96 CURVE",
"158 47 OFFCURVE",
"131 19 OFFCURVE",
"98 18 CURVE SMOOTH"
);
}
);
width = 194;
},
{
layerId = "A72BB3A8-8C9B-4C2C-A511-E8018540F19E";
paths = (
{
closed = 1;
nodes = (
"152 -3 OFFCURVE",
"192 34 OFFCURVE",
"192 97 CURVE SMOOTH",
"192 158 OFFCURVE",
"152 195 OFFCURVE",
"102 194 CURVE SMOOTH",
"51 195 OFFCURVE",
"12 158.008 OFFCURVE",
"12 97 CURVE SMOOTH",
"12 34 OFFCURVE",
"51 -3 OFFCURVE",
"102 -2 CURVE SMOOTH"
);
},
{
closed = 1;
nodes = (
"77 41 OFFCURVE",
"63 63 OFFCURVE",
"64 97 CURVE SMOOTH",
"63 130 OFFCURVE",
"77 151 OFFCURVE",
"102 150 CURVE SMOOTH",
"127 151 OFFCURVE",
"140 130 OFFCURVE",
"140 97 CURVE SMOOTH",
"140 63 OFFCURVE",
"127 41 OFFCURVE",
"102 42 CURVE SMOOTH"
);
}
);
width = 204;
},
{
layerId = "01F631F0-7691-4ABE-A988-72FCE954A13E";
paths = (
{
closed = 1;
nodes = (
"141 -2 OFFCURVE",
"172 40 OFFCURVE",
"172 98 CURVE SMOOTH",
"172 154.009 OFFCURVE",
"141 194 OFFCURVE",
"96 194 CURVE SMOOTH",
"49.989 194 OFFCURVE",
"18 154.009 OFFCURVE",
"18 98 CURVE SMOOTH",
"18 40 OFFCURVE",
"49.989 -2 OFFCURVE",
"96 -2 CURVE SMOOTH"
);
},
{
closed = 1;
nodes = (
"52.988 4 OFFCURVE",
"24 44 OFFCURVE",
"24 98 CURVE SMOOTH",
"24 151 OFFCURVE",
"52.988 188 OFFCURVE",
"96 188 CURVE SMOOTH",
"138 188 OFFCURVE",
"166 151.009 OFFCURVE",
"166 98 CURVE SMOOTH",
"166 44 OFFCURVE",
"138 4 OFFCURVE",
"96 4 CURVE SMOOTH"
);
}
);
width = 194;
}
);
unicode = 004F;
},
{
glyphname = P;
lastChange = "2020-08-02 02:38:48 +0000";
layers = (
{
layerId = "B7C9AB5D-FCF9-4269-AD58-638C2721BDA6";
paths = (
{
closed = 1;
nodes = (
"46 0 LINE",
"46 74 LINE",
"86 74 LINE SMOOTH",
"130 74 OFFCURVE",
"150 100 OFFCURVE",
"148 134 CURVE SMOOTH",
"150 166 OFFCURVE",
"130 192 OFFCURVE",
"86 192 CURVE SMOOTH",
"22 192 LINE",
"22 0 LINE"
);
},
{
closed = 1;
nodes = (
"46 172 LINE",
"84 172 LINE SMOOTH",
"116 172 OFFCURVE",
"128 156 OFFCURVE",
"126 134 CURVE SMOOTH",
"128 112 OFFCURVE",
"116 94 OFFCURVE",
"86 94 CURVE SMOOTH",
"46 94 LINE"
);
}
);
width = 162;
},
{
layerId = "A72BB3A8-8C9B-4C2C-A511-E8018540F19E";
paths = (
{
closed = 1;
nodes = (
"62 0 LINE",
"62 62 LINE",
"90 62 LINE SMOOTH",
"133.035 62 OFFCURVE",
"162 86 OFFCURVE",
"162 126 CURVE SMOOTH",
"162 166.012 OFFCURVE",
"134 192 OFFCURVE",
"92 192 CURVE SMOOTH",
"12 192 LINE",
"12 0 LINE"
);
},
{
closed = 1;
nodes = (
"62 152 LINE",
"80 152 LINE SMOOTH",
"98.055 152 OFFCURVE",
"108 142.031 OFFCURVE",
"108 126 CURVE SMOOTH",
"108 110 OFFCURVE",
"98.055 100 OFFCURVE",
"80 100 CURVE SMOOTH",
"62 100 LINE"
);
}
);
width = 168;
},
{
layerId = "01F631F0-7691-4ABE-A988-72FCE954A13E";
paths = (
{
closed = 1;
nodes = (
"34 0 LINE",
"34 84 LINE",
"84 84 LINE SMOOTH",
"115.016 84 OFFCURVE",
"137 106 OFFCURVE",
"138 138 CURVE SMOOTH",
"137 170 OFFCURVE",
"115 192 OFFCURVE",
"84 192 CURVE SMOOTH",
"28 192 LINE",
"28 0 LINE"
);
},
{
closed = 1;
nodes = (
"34 186 LINE",
"84 186 LINE SMOOTH",
"112 186 OFFCURVE",
"131 166 OFFCURVE",
"132 138 CURVE SMOOTH",
"131 109 OFFCURVE",
"112.018 90 OFFCURVE",
"84 90 CURVE SMOOTH",
"34 90 LINE"
);
}
);
width = 162;
}
);
unicode = 0050;
},
{
glyphname = Q;
lastChange = "2020-08-02 02:37:17 +0000";
layers = (
{
components = (
{
name = O;
}
);
layerId = "B7C9AB5D-FCF9-4269-AD58-638C2721BDA6";
paths = (
{
closed = 1;
nodes = (
"180 12 LINE",
"132 60 LINE",
"120 48 LINE",
"168 0 LINE"
);
}
);
width = 194;
},
{
components = (
{
name = O;
}
);
layerId = "A72BB3A8-8C9B-4C2C-A511-E8018540F19E";
paths = (
{
closed = 1;
nodes = (
"192 -14 LINE",
"124 70 LINE",
"84 70 LINE",
"150 -14 LINE"
);
}
);
width = 204;
},
{
components = (
{
name = O;
}
);
layerId = "01F631F0-7691-4ABE-A988-72FCE954A13E";
paths = (
{
closed = 1;
nodes = (
"172 4 LINE",
"124 52 LINE",
"120 48 LINE",
"168 0 LINE"
);
}
);
width = 194;
}
);
unicode = 0051;
},
{
glyphname = R;
lastChange = "2020-08-02 19:32:18 +0000";
layers = (
{
layerId = "B7C9AB5D-FCF9-4269-AD58-638C2721BDA6";
paths = (
{
closed = 1;
nodes = (
"46 0 LINE",
"46 74 LINE",
"92 74 LINE",
"130 0 LINE",
"156 0 LINE",
"114 78 LINE",
"138 88 OFFCURVE",
"148 108 OFFCURVE",
"148 134 CURVE SMOOTH",
"148 168 OFFCURVE",
"130 192 OFFCURVE",
"86 192 CURVE SMOOTH",
"22 192 LINE",
"22 0 LINE"
);
},
{
closed = 1;
nodes = (
"46 172 LINE",
"84 172 LINE SMOOTH",
"116 172 OFFCURVE",
"126 158 OFFCURVE",
"126 134 CURVE SMOOTH",
"126 112 OFFCURVE",
"116 96 OFFCURVE",
"86 96 CURVE SMOOTH",
"46 96 LINE"
);
}
);
width = 164;
},
{
layerId = "A72BB3A8-8C9B-4C2C-A511-E8018540F19E";
paths = (
{
closed = 1;
nodes = (
"62 0 LINE",
"62 68 LINE",
"79.478 68 LINE",
"112 0 LINE",
"168 0 LINE",
"130.177 75.645 LINE",
"149.712 85.122 OFFCURVE",
"162.361 102.095 OFFCURVE",
"162 128 CURVE SMOOTH",
"161.428 169.008 OFFCURVE",
"134 192 OFFCURVE",
"92 192 CURVE SMOOTH",
"12 192 LINE",
"12 0 LINE"
);
},
{
closed = 1;
nodes = (
"62 152 LINE",
"80 152 LINE SMOOTH",
"99 152 OFFCURVE",
"108 145.029 OFFCURVE",
"108 128 CURVE SMOOTH",
"108 113 OFFCURVE",
"99.028 106 OFFCURVE",
"80 106 CURVE SMOOTH",
"62 106 LINE"
);
}
);
width = 170;
},
{
layerId = "01F631F0-7691-4ABE-A988-72FCE954A13E";
paths = (
{
closed = 1;
nodes = (
"34 0 LINE",
"34 83 LINE",
"95.617 83.047 LINE",
"140 0 LINE",
"146 0 LINE",
"100.929 84.303 LINE",
"122.742 90.595 OFFCURVE",
"137.182 111.398 OFFCURVE",
"137 138 CURVE SMOOTH",
"136.774 171.015 OFFCURVE",
"116.016 192 OFFCURVE",
"83 192 CURVE SMOOTH",
"29 192 LINE",
"29 0 LINE"
);
},
{
closed = 1;
nodes = (
"34 187 LINE",
"84 187 LINE SMOOTH",
"112 187 OFFCURVE",
"132 166.018 OFFCURVE",
"132 138 CURVE SMOOTH",
"132 109 OFFCURVE",
"112 88 OFFCURVE",
"90 88 CURVE SMOOTH",
"34 88 LINE"
);
}
);
width = 164;
}
);
unicode = 0052;
},
{
glyphname = S;
lastChange = "2020-08-02 19:37:05 +0000";
layers = (
{
layerId = "B7C9AB5D-FCF9-4269-AD58-638C2721BDA6";
paths = (
{
closed = 1;
nodes = (
"124.012 -4 OFFCURVE",
"150 20 OFFCURVE",
"150 50 CURVE SMOOTH",
"150 87.014 OFFCURVE",
"115.91 101.575 OFFCURVE",
"96 106 CURVE SMOOTH",
"78 110 LINE SMOOTH",
"63.067 113.318 OFFCURVE",
"42 122 OFFCURVE",
"42 142 CURVE SMOOTH",
"42 160.028 OFFCURVE",
"58 174 OFFCURVE",
"82 174 CURVE SMOOTH",
"105.022 174 OFFCURVE",
"121 162 OFFCURVE",
"122 144 CURVE",
"144 144 LINE",
"143 172 OFFCURVE",
"119.014 194 OFFCURVE",
"84 194 CURVE SMOOTH",
"48 194 OFFCURVE",
"20 172 OFFCURVE",
"20 140 CURVE SMOOTH",
"20 116 OFFCURVE",
"37.058 99.236 OFFCURVE",
"66 92 CURVE SMOOTH",
"90 86 LINE SMOOTH",
"109.06 81.235 OFFCURVE",
"128 69.026 OFFCURVE",
"128 50 CURVE SMOOTH",
"128 31 OFFCURVE",
"107.02 18 OFFCURVE",
"82 18 CURVE SMOOTH",
"59 18 OFFCURVE",
"39 27 OFFCURVE",
"38 48 CURVE",
"14 48 LINE",
"17 17 OFFCURVE",
"41 -4 OFFCURVE",
"82 -4 CURVE SMOOTH"
);
}
);
width = 164;
},
{
layerId = "A72BB3A8-8C9B-4C2C-A511-E8018540F19E";
paths = (
{
closed = 1;
nodes = (
"135.02 -2 OFFCURVE",
"164.02 18 OFFCURVE",
"164.02 54 CURVE SMOOTH",
"164.02 83.017 OFFCURVE",
"145.705 95.849 OFFCURVE",
"108.02 112 CURVE SMOOTH",
"87.02 121 LINE SMOOTH",
"70.247 128.188 OFFCURVE",
"64.02 130 OFFCURVE",
"64.02 140 CURVE SMOOTH",
"64.02 147.071 OFFCURVE",
"72.02 154 OFFCURVE",
"88.02 154 CURVE SMOOTH",
"104.051 154 OFFCURVE",
"112.02 146 OFFCURVE",
"112.02 134 CURVE",
"160.02 134 LINE",
"160.02 171 OFFCURVE",
"132.02 194 OFFCURVE",
"88.02 194 CURVE SMOOTH",
"43.009 194 OFFCURVE",
"12.02 171 OFFCURVE",
"12.02 136 CURVE SMOOTH",
"12.02 106 OFFCURVE",
"32.286 97.6 OFFCURVE",
"64.02 84 CURVE SMOOTH",
"85.02 75 LINE SMOOTH",
"103.969 66.879 OFFCURVE",
"112.02 63.055 OFFCURVE",
"112.02 54 CURVE SMOOTH {name = hr00;}",
"112.02 46 OFFCURVE",
"103.02 40 OFFCURVE",
"86.02 40 CURVE SMOOTH",
"67.992 40 OFFCURVE",
"56.02 48 OFFCURVE",
"56.02 66 CURVE",
"8.02 66 LINE",
"8.02 19 OFFCURVE",
"39.02 -2 OFFCURVE",
"88.02 -2 CURVE SMOOTH"
);
}
);
width = 170.02;
},
{
layerId = "01F631F0-7691-4ABE-A988-72FCE954A13E";
paths = (
{
closed = 1;
nodes = (
"113 -2 OFFCURVE",
"138 18 OFFCURVE",
"138 48 CURVE SMOOTH",
"138 70.023 OFFCURVE",
"120.471 78.624 OFFCURVE",
"91 94 CURVE SMOOTH",
"68 106 LINE SMOOTH",
"42.412 119.35 OFFCURVE",
"30 126 OFFCURVE",
"30 146 CURVE SMOOTH",
"30 170 OFFCURVE",
"51 188 OFFCURVE",
"80 188 CURVE SMOOTH",
"108.018 188 OFFCURVE",
"127 169 OFFCURVE",
"128 144 CURVE",
"134 144 LINE",
"133 172 OFFCURVE",
"111.016 194 OFFCURVE",
"80 194 CURVE SMOOTH",
"47 194 OFFCURVE",
"24 173 OFFCURVE",
"24 146 CURVE SMOOTH",
"24 124 OFFCURVE",
"38.473 114.362 OFFCURVE",
"66 100 CURVE SMOOTH",
"89 88 LINE SMOOTH",
"117.619 73.068 OFFCURVE",
"132 67.026 OFFCURVE",
"132 48 CURVE SMOOTH",
"132 21 OFFCURVE",
"110 2 OFFCURVE",
"78 2 CURVE SMOOTH",
"46.984 2 OFFCURVE",
"27 20 OFFCURVE",
"26 44 CURVE",
"20 44 LINE",
"21 16 OFFCURVE",
"43.985 -2 OFFCURVE",
"78 -2 CURVE SMOOTH"
);
}
);
width = 164;
}
);
unicode = 0053;
},
{
glyphname = T;
lastChange = "2020-08-02 19:11:40 +0000";
layers = (
{
layerId = "B7C9AB5D-FCF9-4269-AD58-638C2721BDA6";
paths = (
{
closed = 1;
nodes = (
"70 172 LINE",
"70 0 LINE",
"94 0 LINE",
"94 172 LINE",
"152 172 LINE",
"152 192 LINE",
"12 192 LINE",
"12 172 LINE"
);
}
);
width = 164;
},
{
layerId = "A72BB3A8-8C9B-4C2C-A511-E8018540F19E";
paths = (
{
closed = 1;
nodes = (
"46 152 LINE",
"46 0 LINE",
"96 0 LINE",
"96 152 LINE",
"152 152 LINE",
"152 192 LINE",
"-10 192 LINE",
"-10 152 LINE"
);
}
);
width = 152;
},
{
layerId = "01F631F0-7691-4ABE-A988-72FCE954A13E";
paths = (
{
closed = 1;
nodes = (
"76 186 LINE",
"76 0 LINE",
"82 0 LINE",
"82 186 LINE",
"142 186 LINE",
"142 192 LINE",
"16 192 LINE",
"16 186 LINE"
);
}
);
width = 158;
}
);
unicode = 0054;
},
{
glyphname = U;
lastChange = "2020-08-02 19:39:06 +0000";
layers = (
{
layerId = "B7C9AB5D-FCF9-4269-AD58-638C2721BDA6";
paths = (
{
closed = 1;
nodes = (
"139 -4 OFFCURVE",
"168 25 OFFCURVE",
"168 62 CURVE SMOOTH",
"168 192 LINE",
"144 192 LINE",
"144 64 LINE SMOOTH",
"144 37 OFFCURVE",
"126 18 OFFCURVE",
"94 18 CURVE SMOOTH",
"64 18 OFFCURVE",
"46 37 OFFCURVE",
"46 64 CURVE SMOOTH",
"46 192 LINE",
"22 192 LINE",
"22 62 LINE SMOOTH",
"22 25 OFFCURVE",
"50.988 -4 OFFCURVE",
"94 -4 CURVE SMOOTH"
);
}
);
width = 190;
},
{
layerId = "A72BB3A8-8C9B-4C2C-A511-E8018540F19E";
paths = (
{
closed = 1;
nodes = (
"140 -2 OFFCURVE",
"172 23.988 OFFCURVE",
"172 66 CURVE SMOOTH",
"172 192 LINE",
"122 192 LINE",
"122 72 LINE SMOOTH",
"122 54 OFFCURVE",
"110 42 OFFCURVE",
"92 42 CURVE SMOOTH",
"74.971 42 OFFCURVE",
"62 53.972 OFFCURVE",
"62 72 CURVE SMOOTH",
"62 192 LINE",
"12 192 LINE",
"12 66 LINE SMOOTH",
"12 24 OFFCURVE",
"44 -2 OFFCURVE",
"92 -2 CURVE SMOOTH"
);
}
);
width = 184.02;
},
{
layerId = "01F631F0-7691-4ABE-A988-72FCE954A13E";
paths = (
{
closed = 1;
nodes = (
"136 -2 OFFCURVE",
"166 24.946 OFFCURVE",
"166 62 CURVE SMOOTH",
"166 192 LINE",
"160 192 LINE",
"160 62 LINE SMOOTH",
"160 29.941 OFFCURVE",
"133 4 OFFCURVE",
"98 4 CURVE SMOOTH",
"62.986 4 OFFCURVE",
"36 29.927 OFFCURVE",
"36 62 CURVE SMOOTH",
"36 192 LINE",
"30 192 LINE",
"30 62 LINE SMOOTH",
"30 24.973 OFFCURVE",
"59.987 -2 OFFCURVE",
"98 -2 CURVE SMOOTH"
);
}
);
width = 196;
}
);
unicode = 0055;
},
{
glyphname = V;
lastChange = "2020-08-02 19:39:24 +0000";
layers = (
{
layerId = "B7C9AB5D-FCF9-4269-AD58-638C2721BDA6";
paths = (
{
closed = 1;
nodes = (
"98 0 LINE",
"166 192 LINE",
"142 192 LINE",
"87 29 LINE",
"30 192 LINE",
"6 192 LINE",
"74 0 LINE"
);
}
);
width = 174;
},
{
layerId = "A72BB3A8-8C9B-4C2C-A511-E8018540F19E";
paths = (
{
closed = 1;
nodes = (
"136 0 LINE",
"198 192 LINE",
"140 192 LINE",
"102 54 LINE",
"62 192 LINE",
"6 192 LINE",
"68 0 LINE"
);
}
);
width = 204;
},
{
layerId = "01F631F0-7691-4ABE-A988-72FCE954A13E";
paths = (
{
closed = 1;
nodes = (
"84 0 LINE",
"152 192 LINE",
"145 192 LINE",
"80 8 LINE",
"15 192 LINE",
"8 192 LINE",
"75 0 LINE"
);
}
);
width = 160;
}
);
unicode = 0056;
},
{
glyphname = W;
lastChange = "2020-08-02 19:39:51 +0000";
layers = (
{
layerId = "B7C9AB5D-FCF9-4269-AD58-638C2721BDA6";
paths = (
{
closed = 1;
nodes = (
"80 0 LINE",
"121 157 LINE",
"164 0 LINE",
"186 0 LINE",
"238 192 LINE",
"214 192 LINE",
"176 31 LINE",
"134 192 LINE",
"108 192 LINE",
"69 31 LINE",
"28 192 LINE",
"6 192 LINE",
"56 0 LINE"
);
}
);
width = 242;
},
{
layerId = "A72BB3A8-8C9B-4C2C-A511-E8018540F19E";
paths = (
{
closed = 1;
nodes = (
"108 0 LINE",
"140 110 LINE",
"172 0 LINE",
"220 0 LINE",
"276 192 LINE",
"220 192 LINE",
"193 72 LINE",
"162 192 LINE",
"118 192 LINE",
"87 72 LINE",
"60 192 LINE",
"4 192 LINE",
"60 0 LINE"
);
}
);
width = 280;
},
{
layerId = "01F631F0-7691-4ABE-A988-72FCE954A13E";
paths = (
{
closed = 1;
nodes = (
"66 0 LINE",
"114 184 LINE",
"162 0 LINE",
"170 0 LINE",
"222 192 LINE",
"214 192 LINE",
"166 10 LINE",
"118 192 LINE",
"110 192 LINE",
"62 10 LINE",
"14 192 LINE",
"8 192 LINE",
"58 0 LINE"
);
}
);
width = 230;
}
);
unicode = 0057;
},
{
glyphname = X;
lastChange = "2020-08-02 19:40:10 +0000";
layers = (
{
layerId = "B7C9AB5D-FCF9-4269-AD58-638C2721BDA6";
paths = (
{
closed = 1;
nodes = (
"34 0 LINE",
"83 76 LINE",
"130 0 LINE",
"158 0 LINE",
"98 94 LINE",
"158 186 LINE",
"130 186 LINE",
"83 108 LINE",
"34 186 LINE",
"6 186 LINE",
"66 94 LINE",
"6 0 LINE"
);
}
);
width = 164;
},
{
layerId = "A72BB3A8-8C9B-4C2C-A511-E8018540F19E";
paths = (
{
closed = 1;
nodes = (
"66 0 LINE",
"97 59 LINE",
"130 0 LINE",
"188 0 LINE",
"130 97 LINE",
"186 192 LINE",
"130 192 LINE",
"97 135 LINE",
"66 192 LINE",
"10 192 LINE",
"64 97 LINE",
"8 0 LINE"
);
}
);
width = 196;
},
{
layerId = "01F631F0-7691-4ABE-A988-72FCE954A13E";
paths = (
{
closed = 1;
nodes = (
"16 0 LINE",
"75 91 LINE",
"134 0 LINE",
"142 0 LINE",
"78 97 LINE",
"142 192 LINE",
"134 192 LINE",
"75 101 LINE",
"16 192 LINE",
"8 192 LINE",
"72 97 LINE",
"8 0 LINE"
);
}
);
width = 150;
}
);
unicode = 0058;
},
{
glyphname = Y;
lastChange = "2020-08-02 19:40:27 +0000";
layers = (
{
layerId = "B7C9AB5D-FCF9-4269-AD58-638C2721BDA6";
paths = (
{
closed = 1;
nodes = (
"96 0 LINE",
"96 76 LINE",
"164 186 LINE",
"138 186 LINE",
"85 98 LINE",
"32 186 LINE",
"6 186 LINE",
"74 76 LINE",
"74 0 LINE"
);
}
);
width = 170;
},
{
layerId = "A72BB3A8-8C9B-4C2C-A511-E8018540F19E";
paths = (
{
closed = 1;
nodes = (
"122 0 LINE",
"122 62 LINE",
"192 192 LINE",
"134 192 LINE",
"98 112 LINE",
"60 192 LINE",
"4 192 LINE",
"72 62 LINE",
"72 0 LINE"
);
}
);
width = 196;
},
{
layerId = "01F631F0-7691-4ABE-A988-72FCE954A13E";
paths = (
{
closed = 1;
nodes = (
"82 0 LINE",
"82 92 LINE",
"148 192 LINE",
"142 192 LINE",
"79 98 LINE",
"16 192 LINE",
"8 192 LINE",
"76 92 LINE",
"76 0 LINE"
);
}
);
width = 158;
}
);
unicode = 0059;
},
{
glyphname = Z;
lastChange = "2020-08-02 03:24:11 +0000";
layers = (
{
layerId = "B7C9AB5D-FCF9-4269-AD58-638C2721BDA6";
paths = (
{
closed = 1;
nodes = (
"144 0 LINE",
"144 20 LINE",
"44 20 LINE",
"144 170 LINE",
"144 186 LINE",
"16 186 LINE",
"16 166 LINE",
"116 166 LINE",
"16 16 LINE",
"16 0 LINE"
);
}
);
width = 160;
},
{
layerId = "A72BB3A8-8C9B-4C2C-A511-E8018540F19E";
paths = (
{
closed = 1;
nodes = (
"164 0 LINE",
"164 40 LINE",
"78 40 LINE",
"166 164 LINE",
"166 192 LINE",
"14 192 LINE",
"14 152 LINE",
"100 152 LINE",
"12 28 LINE",
"12 0 LINE"
);
}
);
width = 178;
},
{
layerId = "01F631F0-7691-4ABE-A988-72FCE954A13E";
paths = (
{
closed = 1;
nodes = (
"136 0 LINE",
"136 6 LINE",
"26 6 LINE",
"136 186 LINE",
"136 192 LINE",
"20 192 LINE",
"20 186 LINE",
"128 186 LINE",
"20 6 LINE",
"20 0 LINE"
);
}
);
width = 154;
}
);
unicode = 005A;
},
{
glyphname = a;
lastChange = "2020-08-02 19:46:38 +0000";
layers = (
{
layerId = "B7C9AB5D-FCF9-4269-AD58-638C2721BDA6";
paths = (
{
closed = 1;
nodes = (
"80.032 -3.199 OFFCURVE",
"95.338 6.451 OFFCURVE",
"104 18 CURVE",
"104 12 OFFCURVE",
"105 6 OFFCURVE",
"107 0 CURVE",
"127 0 LINE",
"125 7.447 OFFCURVE",
"124 14.893 OFFCURVE",
"124 22.34 CURVE SMOOTH",
"124 92 LINE SMOOTH",
"124 136 OFFCURVE",
"91 141 OFFCURVE",
"74 142 CURVE SMOOTH",
"52 141 OFFCURVE",
"29 132 OFFCURVE",
"24 102 CURVE",
"42 102 LINE",
"44 114 OFFCURVE",
"53 127 OFFCURVE",
"74 126 CURVE SMOOTH",
"96 127 OFFCURVE",
"104 115 OFFCURVE",
"104 94 CURVE SMOOTH",
"104 84.177 OFFCURVE",
"87.924 81.932 OFFCURVE",
"69.358 78.941 CURVE SMOOTH",
"43.615 74.794 OFFCURVE",
"13.087 69.212 OFFCURVE",
"14 40 CURVE SMOOTH",
"13 12 OFFCURVE",
"34 -3 OFFCURVE",
"60 -4 CURVE SMOOTH"
);
},
{
closed = 1;
nodes = (
"47 16 OFFCURVE",
"35 24 OFFCURVE",
"34 38 CURVE SMOOTH",
"35 55 OFFCURVE",
"49 60 OFFCURVE",
"66 62 CURVE SMOOTH",
"75 63 OFFCURVE",
"100 66 OFFCURVE",
"104 70 CURVE",
"104 50 LINE SMOOTH",
"104 33 OFFCURVE",
"89 16 OFFCURVE",
"64 16 CURVE SMOOTH"
);
}
);
width = 144;
},
{
layerId = "A72BB3A8-8C9B-4C2C-A511-E8018540F19E";
paths = (
{
closed = 1;
nodes = (
"71.266 -2 OFFCURVE",
"85.181 5.889 OFFCURVE",
"94 20 CURVE",
"94 13.333 OFFCURVE",
"96 5.667 OFFCURVE",
"100 0 CURVE",
"144.637 -0.703 LINE",
"141.585 6.504 OFFCURVE",
"140.579 14.673 OFFCURVE",
"140.481 27.917 CURVE SMOOTH",
"140 93 LINE SMOOTH",
"139.767 124.999 OFFCURVE",
"119 146 OFFCURVE",
"76 146 CURVE SMOOTH",
"33.988 146 OFFCURVE",
"12 125 OFFCURVE",
"12 98 CURVE",
"58 98 LINE",
"58 107 OFFCURVE",
"64.945 110 OFFCURVE",
"74 110 CURVE SMOOTH",
"84 110 OFFCURVE",
"90 107 OFFCURVE",
"90 100 CURVE SMOOTH",
"90 89.732 OFFCURVE",
"78.674 85.841 OFFCURVE",
"64.34 82.386 CURVE SMOOTH",
"39.638 76.431 OFFCURVE",
"6 71.771 OFFCURVE",
"6 38 CURVE SMOOTH",
"6 11 OFFCURVE",
"25 -2 OFFCURVE",
"52 -2 CURVE SMOOTH"
);
},
{
closed = 1;
nodes = (
"59 30 OFFCURVE",
"54 34 OFFCURVE",
"54 42 CURVE SMOOTH",
"54 49.071 OFFCURVE",
"59 54 OFFCURVE",
"70 56 CURVE SMOOTH",
"77.932 57.442 OFFCURVE",
"85 59 OFFCURVE",
"90 62 CURVE",
"90 50 LINE SMOOTH",
"90 37 OFFCURVE",
"79.045 30 OFFCURVE",
"68 30 CURVE SMOOTH"
);
}
);
width = 152;
},
{
layerId = "01F631F0-7691-4ABE-A988-72FCE954A13E";
paths = (
{
closed = 1;
nodes = (
"80.793 -1.99 OFFCURVE",
"98.719 10.366 OFFCURVE",
"108 28 CURVE",
"108 18.667 OFFCURVE",
"109 9.333 OFFCURVE",
"112 0 CURVE",
"118 0 LINE",
"115 9.116 OFFCURVE",
"114 18.232 OFFCURVE",
"114 27.348 CURVE SMOOTH",
"114 104 LINE SMOOTH",
"114 128.021 OFFCURVE",
"96 146 OFFCURVE",
"68 146 CURVE SMOOTH",
"46 146 OFFCURVE",
"21 134 OFFCURVE",
"21 116 CURVE",
"27 116 LINE",
"27 131 OFFCURVE",
"48 140 OFFCURVE",
"68 140 CURVE SMOOTH",
"98.812 140 OFFCURVE",
"108 118.939 OFFCURVE",
"108 92 CURVE SMOOTH",
"108 81.286 OFFCURVE",
"90.945 79.915 OFFCURVE",
"71.684 77.322 CURVE SMOOTH",
"46.698 73.959 OFFCURVE",
"18 68.539 OFFCURVE",
"18 38 CURVE SMOOTH",
"18 12 OFFCURVE",
"36.978 -2.011 OFFCURVE",
"60 -2 CURVE SMOOTH"
);
},
{
closed = 1;
nodes = (
"38.976 2 OFFCURVE",
"23 17 OFFCURVE",
"23 38 CURVE SMOOTH",
"23 56.028 OFFCURVE",
"34.952 67.369 OFFCURVE",
"72 72 CURVE SMOOTH",
"88 74 OFFCURVE",
"100 76 OFFCURVE",
"108 80 CURVE",
"108 54 LINE SMOOTH",
"108 24.968 OFFCURVE",
"86 2 OFFCURVE",
"60 2 CURVE SMOOTH"
);
}
);
width = 138;
}
);
unicode = 0061;
},
{
glyphname = b;
lastChange = "2020-08-02 19:48:06 +0000";
layers = (
{
layerId = "B7C9AB5D-FCF9-4269-AD58-638C2721BDA6";
paths = (
{
closed = 1;
nodes = (
"44 0 LINE",
"44 22 LINE",
"61.251 2.284 OFFCURVE",
"67.356 -1.717 OFFCURVE",
"86 -2 CURVE SMOOTH",
"121.01 -2.531 OFFCURVE",
"146 27 OFFCURVE",
"146 72 CURVE SMOOTH",
"146 117 OFFCURVE",
"121.011 145.543 OFFCURVE",
"86 146 CURVE SMOOTH",
"66.036 146.261 OFFCURVE",
"58.893 141.893 OFFCURVE",
"44 122 CURVE",
"44 192 LINE",
"22 192 LINE",
"22 0 LINE"
);
},
{
closed = 1;
nodes = (
"58 16 OFFCURVE",
"44 40 OFFCURVE",
"44 72 CURVE SMOOTH",
"44 105 OFFCURVE",
"57 126 OFFCURVE",
"84 126 CURVE SMOOTH",
"111 126 OFFCURVE",
"124 103 OFFCURVE",
"124 72 CURVE SMOOTH",
"124 42 OFFCURVE",
"111 16 OFFCURVE",
"84 16 CURVE SMOOTH"
);
}
);
width = 158;
},
{
layerId = "A72BB3A8-8C9B-4C2C-A511-E8018540F19E";
paths = (
{
closed = 1;
nodes = (
"62 0 LINE",
"62 22 LINE",
"69 9 OFFCURVE",
"82 -2 OFFCURVE",
"102 -2 CURVE SMOOTH",
"132 -2 OFFCURVE",
"156 20.99 OFFCURVE",
"156 70 CURVE SMOOTH",
"156 124 OFFCURVE",
"130 146 OFFCURVE",
"102 146 CURVE SMOOTH",
"80.976 146 OFFCURVE",
"68 133 OFFCURVE",
"62 120 CURVE",
"62 192 LINE",
"12 192 LINE",
"12 0 LINE"
);
},
{
closed = 1;
nodes = (
"68.967 36 OFFCURVE",
"62 49 OFFCURVE",
"62 70 CURVE SMOOTH",
"62 91 OFFCURVE",
"69 106 OFFCURVE",
"84 106 CURVE SMOOTH",
"97.038 106 OFFCURVE",
"106 91 OFFCURVE",
"106 70 CURVE SMOOTH",
"106 48.976 OFFCURVE",
"97 36 OFFCURVE",
"84 36 CURVE SMOOTH"
);
}
);
width = 166;
},
{
layerId = "01F631F0-7691-4ABE-A988-72FCE954A13E";
paths = (
{
closed = 1;
nodes = (
"34 0 LINE",
"34 38 LINE",
"38.525 17.605 OFFCURVE",
"56.425 -2.072 OFFCURVE",
"82 -2 CURVE SMOOTH",
"116.015 -1.897 OFFCURVE",
"136 30 OFFCURVE",
"136 72 CURVE SMOOTH",
"136 113.012 OFFCURVE",
"116 148 OFFCURVE",
"82 148 CURVE SMOOTH",
"60.3 148 OFFCURVE",
"40.097 130.692 OFFCURVE",
"34 106 CURVE",
"34 192 LINE",
"29 192 LINE",
"29 0 LINE"
);
},
{
closed = 1;
nodes = (
"53 2 OFFCURVE",
"34 38 OFFCURVE",
"34 76 CURVE SMOOTH",
"34 113.014 OFFCURVE",
"53 142 OFFCURVE",
"82 142 CURVE SMOOTH",
"112 142 OFFCURVE",
"130 109.014 OFFCURVE",
"130 72 CURVE SMOOTH",
"130 34 OFFCURVE",
"113.016 2 OFFCURVE",
"82 2 CURVE SMOOTH"
);
}
);
width = 154.03;
}
);
unicode = 0062;
},
{
glyphname = c;
lastChange = "2020-08-02 03:30:28 +0000";
layers = (
{
layerId = "B7C9AB5D-FCF9-4269-AD58-638C2721BDA6";
paths = (
{
closed = 1;
nodes = (
"107 -2 OFFCURVE",
"130 20 OFFCURVE",
"132 56 CURVE",
"112 56 LINE",
"111 29 OFFCURVE",
"93 16 OFFCURVE",
"76 16 CURVE SMOOTH",
"51 16 OFFCURVE",
"34 39 OFFCURVE",
"34 72 CURVE SMOOTH",
"34 105 OFFCURVE",
"51 126 OFFCURVE",
"76 126 CURVE SMOOTH",
"95 126 OFFCURVE",
"111 109 OFFCURVE",
"112 88 CURVE",
"132 88 LINE",
"130 123 OFFCURVE",
"105 146 OFFCURVE",
"76 146 CURVE SMOOTH",
"38 146 OFFCURVE",
"14 116 OFFCURVE",
"14 72 CURVE SMOOTH",
"14 29 OFFCURVE",
"37 -2 OFFCURVE",
"76 -2 CURVE SMOOTH"
);
}
);
width = 142;
},
{
layerId = "A72BB3A8-8C9B-4C2C-A511-E8018540F19E";
paths = (
{
closed = 1;
nodes = (
"121 -3 OFFCURVE",
"147 21 OFFCURVE",
"148 58 CURVE",
"100 58 LINE",
"100 44 OFFCURVE",
"92 36 OFFCURVE",
"80 36 CURVE SMOOTH",
"68 36 OFFCURVE",
"58 47 OFFCURVE",
"58 70 CURVE SMOOTH",
"58 93.022 OFFCURVE",
"68 108 OFFCURVE",
"80 108 CURVE SMOOTH",
"92 108 OFFCURVE",
"99 100 OFFCURVE",
"100 86 CURVE",
"148 86 LINE",
"147 122 OFFCURVE",
"121 145 OFFCURVE",
"80 146 CURVE SMOOTH",
"35 145 OFFCURVE",
"8 112 OFFCURVE",
"8 70 CURVE SMOOTH",
"8 27 OFFCURVE",
"35 -3 OFFCURVE",
"80 -2 CURVE SMOOTH"
);
}
);
width = 156;
},
{
layerId = "01F631F0-7691-4ABE-A988-72FCE954A13E";
paths = (
{
closed = 1;
nodes = (
"100 -2 OFFCURVE",
"122 14 OFFCURVE",
"126 44 CURVE",
"120 44 LINE",
"117 18 OFFCURVE",
"97 2 OFFCURVE",
"74 2 CURVE SMOOTH",
"43.983 2 OFFCURVE",
"22 32 OFFCURVE",
"22 70 CURVE SMOOTH",
"22 108 OFFCURVE",
"45 140 OFFCURVE",
"74 140 CURVE SMOOTH",
"97 140 OFFCURVE",
"116 125 OFFCURVE",
"119 97 CURVE",
"125 97 LINE",
"121 128 OFFCURVE",
"100 146 OFFCURVE",
"74 146 CURVE SMOOTH",
"41 146 OFFCURVE",
"16 110 OFFCURVE",
"16 70 CURVE SMOOTH",
"16 28 OFFCURVE",
"40.985 -2 OFFCURVE",
"74 -2 CURVE SMOOTH"
);
}
);
width = 142;
}
);
unicode = 0063;
},
{
glyphname = d;
lastChange = "2020-08-02 19:49:09 +0000";
layers = (
{
layerId = "B7C9AB5D-FCF9-4269-AD58-638C2721BDA6";
paths = (
{
closed = 1;
nodes = (
"91.937 -2 OFFCURVE",
"98.931 1.931 OFFCURVE",
"116 22 CURVE",
"116 0 LINE",
"136 0 LINE",
"136 192 LINE",
"114 192 LINE",
"114 122 LINE",
"107.969 130.777 OFFCURVE",
"97.652 146.048 OFFCURVE",
"72 146 CURVE SMOOTH",
"36.986 145.937 OFFCURVE",
"14 115.012 OFFCURVE",
"14 72 CURVE SMOOTH",
"14 27 OFFCURVE",
"37 -2 OFFCURVE",
"72 -2 CURVE SMOOTH"
);
},
{
closed = 1;
nodes = (
"48 16 OFFCURVE",
"34 42 OFFCURVE",
"34 72 CURVE SMOOTH",
"34 101.017 OFFCURVE",
"48 126 OFFCURVE",
"76 126 CURVE SMOOTH",
"101 126 OFFCURVE",
"116 103.016 OFFCURVE",
"116 72 CURVE SMOOTH",
"116 41 OFFCURVE",
"101 16 OFFCURVE",
"76 16 CURVE SMOOTH"
);
}
);
width = 158;
},
{
layerId = "A72BB3A8-8C9B-4C2C-A511-E8018540F19E";
paths = (
{
closed = 1;
nodes = (
"81.774 -2 OFFCURVE",
"95.907 8.849 OFFCURVE",
"104 22 CURVE",
"104 0 LINE",
"154 0 LINE",
"154 192 LINE",
"102 192 LINE",
"102 120 LINE",
"97 133 OFFCURVE",
"84 146 OFFCURVE",
"62 146 CURVE SMOOTH",
"34.981 146 OFFCURVE",
"8 120 OFFCURVE",
"8 70 CURVE SMOOTH",
"8 21 OFFCURVE",
"33 -2 OFFCURVE",
"64 -2 CURVE SMOOTH"
);
},
{
closed = 1;
nodes = (
"68 36 OFFCURVE",
"60 49 OFFCURVE",
"60 70 CURVE SMOOTH",
"60 91 OFFCURVE",
"68 106 OFFCURVE",
"82 106 CURVE SMOOTH",
"96.036 106 OFFCURVE",
"104 91 OFFCURVE",
"104 70 CURVE SMOOTH",
"104 49 OFFCURVE",
"96.036 36 OFFCURVE",
"82 36 CURVE SMOOTH"
);
}
);
width = 166;
},
{
layerId = "01F631F0-7691-4ABE-A988-72FCE954A13E";
paths = (
{
closed = 1;
nodes = (
"93 -3 OFFCURVE",
"110 12 OFFCURVE",
"118 34 CURVE",
"118 0 LINE",
"124 0 LINE",
"124 192 LINE",
"118 192 LINE",
"118 108 LINE",
"110 131 OFFCURVE",
"95 146 OFFCURVE",
"70 146 CURVE SMOOTH",
"37 146 OFFCURVE",
"16 111 OFFCURVE",
"16 70 CURVE SMOOTH",
"16 28 OFFCURVE",
"37 -3 OFFCURVE",
"70 -2 CURVE SMOOTH"
);
},
{
closed = 1;
nodes = (
"41 3 OFFCURVE",
"22 32 OFFCURVE",
"22 70 CURVE SMOOTH",
"22 107 OFFCURVE",
"41 140 OFFCURVE",
"70 140 CURVE SMOOTH",
"100 140 OFFCURVE",
"118 114 OFFCURVE",
"118 70 CURVE SMOOTH",
"118 32 OFFCURVE",
"100 3 OFFCURVE",
"70 2 CURVE SMOOTH"
);
}
);
width = 154;
}
);
unicode = 0064;
},
{
glyphname = e;
lastChange = "2020-08-02 19:55:28 +0000";
layers = (
{
layerId = "B7C9AB5D-FCF9-4269-AD58-638C2721BDA6";
paths = (
{
closed = 1;
nodes = (
"107 -3 OFFCURVE",
"130 14 OFFCURVE",
"134 38 CURVE",
"114 38 LINE",
"108 24 OFFCURVE",
"95 16 OFFCURVE",
"78 16 CURVE SMOOTH",
"53.101 16 OFFCURVE",
"35.539 34.342 OFFCURVE",
"34.096 64 CURVE",
"136 64 LINE",
"136 74 LINE SMOOTH",
"136 126 OFFCURVE",
"105 146 OFFCURVE",
"76 146 CURVE SMOOTH",
"37.987 146 OFFCURVE",
"13 114 OFFCURVE",
"14 70 CURVE SMOOTH",
"13 28 OFFCURVE",
"38 -3 OFFCURVE",
"78 -2 CURVE SMOOTH"
);
},
{
closed = 1;
nodes = (
"35.891 105.592 OFFCURVE",
"51.509 126 OFFCURVE",
"76 126 CURVE SMOOTH",
"99 126 OFFCURVE",
"114 107 OFFCURVE",
"114 84 CURVE",
"34.161 84 LINE"
);
}
);
width = 150;
},
{
layerId = "A72BB3A8-8C9B-4C2C-A511-E8018540F19E";
paths = (
{
closed = 1;
nodes = (
"118.013 -2 OFFCURVE",
"143 16 OFFCURVE",
"148 46 CURVE",
"102 46 LINE",
"99 37 OFFCURVE",
"91 33 OFFCURVE",
"80 32 CURVE SMOOTH",
"66.364 32.974 OFFCURVE",
"58 42.371 OFFCURVE",
"58 58 CURVE",
"148 58 LINE",
"148 70 LINE SMOOTH",
"148 114 OFFCURVE",
"121.012 142 OFFCURVE",
"78 142 CURVE SMOOTH",
"35 142 OFFCURVE",
"8 113 OFFCURVE",
"8 70 CURVE SMOOTH",
"8 24 OFFCURVE",
"35 -2 OFFCURVE",
"80 -2 CURVE SMOOTH"
);
},
{
closed = 1;
nodes = (
"58 98 OFFCURVE",
"67 106 OFFCURVE",
"80 106 CURVE SMOOTH",
"92 106 OFFCURVE",
"102 98 OFFCURVE",
"102 86 CURVE",
"58 86 LINE"
);
}
);
width = 156;
},
{
layerId = "01F631F0-7691-4ABE-A988-72FCE954A13E";
paths = (
{
closed = 1;
nodes = (
"104 -3 OFFCURVE",
"124.186 12.804 OFFCURVE",
"129 28 CURVE",
"123 28 LINE",
"119 20 OFFCURVE",
"103 3 OFFCURVE",
"78 2 CURVE SMOOTH",
"42 3 OFFCURVE",
"22 38 OFFCURVE",
"22 74 CURVE",
"132 74 LINE",
"132 80 LINE SMOOTH",
"132 116.014 OFFCURVE",
"107 146 OFFCURVE",
"74 146 CURVE SMOOTH",
"41 146 OFFCURVE",
"16 115 OFFCURVE",
"16 74 CURVE SMOOTH",
"16 32 OFFCURVE",
"40 -3 OFFCURVE",
"78 -2 CURVE SMOOTH"
);
},
{
closed = 1;
nodes = (
"25.37 114.911 OFFCURVE",
"46.549 140 OFFCURVE",
"74 140 CURVE SMOOTH",
"102 140 OFFCURVE",
"125 113 OFFCURVE",
"126 80 CURVE",
"22.338 80 LINE"
);
}
);
width = 150;
}
);
unicode = 0065;
},
{
glyphname = f;
lastChange = "2020-08-02 20:01:04 +0000";
layers = (
{
layerId = "B7C9AB5D-FCF9-4269-AD58-638C2721BDA6";
paths = (
{
closed = 1;
nodes = (
"50 0 LINE",
"50 122 LINE",
"82 122 LINE",
"82 140 LINE",
"50 140 LINE",
"50 165 LINE SMOOTH",
"50 173.036 OFFCURVE",
"53.929 175 OFFCURVE",
"60 175 CURVE SMOOTH",
"82 175 LINE",
"82 194 LINE",
"56 194 LINE SMOOTH",
"38.975 194 OFFCURVE",
"30 186 OFFCURVE",
"30 167 CURVE SMOOTH",
"30 140 LINE",
"6 140 LINE",
"6 122 LINE",
"30 122 LINE",
"30 0 LINE"
);
}
);
width = 92;
},
{
layerId = "A72BB3A8-8C9B-4C2C-A511-E8018540F19E";
paths = (
{
closed = 1;
nodes = (
"72 0 LINE {name = hr00;}",
"72 104 LINE",
"96 104 LINE",
"96 140 LINE",
"72 140 LINE",
"72 146 LINE SMOOTH",
"72 152 OFFCURVE",
"73.95 156 OFFCURVE",
"84 156 CURVE SMOOTH",
"96 156 LINE",
"96 194 LINE",
"65 194 LINE SMOOTH",
"34.933 194 OFFCURVE",
"20 183.059 OFFCURVE",
"20 149 CURVE SMOOTH",
"20 140 LINE",
"2 140 LINE",
"2 104 LINE",
"20 104 LINE",
"20 0 LINE"
);
}
);
width = 96;
},
{
layerId = "01F631F0-7691-4ABE-A988-72FCE954A13E";
paths = (
{
closed = 1;
nodes = (
"42 0 LINE",
"42 134 LINE",
"72 134 LINE",
"72 140 LINE",
"42 140 LINE",
"42 167 LINE SMOOTH",
"42 185.111 OFFCURVE",
"47.834 188 OFFCURVE",
"60 188 CURVE SMOOTH",
"72 188 LINE",
"72 194 LINE",
"60 194 LINE SMOOTH",
"43.875 194 OFFCURVE",
"36 187.1 OFFCURVE",
"36 167 CURVE SMOOTH",
"36 140 LINE",
"18 140 LINE",
"18 134 LINE",
"36 134 LINE",
"36 0 LINE"
);
}
);
width = 84;
}
);
unicode = 0066;
},
{
glyphname = g;
lastChange = "2020-08-02 20:13:33 +0000";
layers = (
{
layerId = "B7C9AB5D-FCF9-4269-AD58-638C2721BDA6";
paths = (
{
closed = 1;
nodes = (
"109 -55 OFFCURVE",
"136 -40 OFFCURVE",
"136 -4 CURVE SMOOTH",
"136 144 LINE",
"116 144 LINE",
"116 122 LINE",
"105.354 138.646 OFFCURVE",
"94.171 145.208 OFFCURVE",
"72 146 CURVE SMOOTH",
"37 145 OFFCURVE",
"13 117 OFFCURVE",
"14 74 CURVE SMOOTH",
"13 31 OFFCURVE",
"39 2 OFFCURVE",
"72 2 CURVE SMOOTH",
"100 2 OFFCURVE",
"111 18 OFFCURVE",
"114 26 CURVE",
"114 -2 LINE SMOOTH",
"114 -26.021 OFFCURVE",
"99 -36 OFFCURVE",
"76 -36 CURVE SMOOTH",
"51 -36 OFFCURVE",
"40.613 -33.332 OFFCURVE",
"36 -18 CURVE",
"15.477 -18 LINE",
"17.624 -46.036 OFFCURVE",
"45 -55 OFFCURVE",
"76 -56 CURVE SMOOTH"
);
},
{
closed = 1;
nodes = (
"48 21 OFFCURVE",
"35 46 OFFCURVE",
"34 74 CURVE SMOOTH",
"35 103 OFFCURVE",
"48 126 OFFCURVE",
"76 126 CURVE SMOOTH",
"101 126 OFFCURVE",
"115 105 OFFCURVE",
"116 74 CURVE SMOOTH",
"115 44 OFFCURVE",
"101 21 OFFCURVE",
"76 22 CURVE SMOOTH"
);
}
);
width = 156;
},
{
layerId = "A72BB3A8-8C9B-4C2C-A511-E8018540F19E";
paths = (
{
closed = 1;
nodes = (
"124 -55 OFFCURVE",
"154 -35.014 OFFCURVE",
"154 0 CURVE SMOOTH",
"154 144 LINE",
"104 144 LINE",
"104 120 LINE",
"97.355 132.341 OFFCURVE",
"85.01 146 OFFCURVE",
"62 146 CURVE SMOOTH",
"35 146 OFFCURVE",
"8 124 OFFCURVE",
"8 74 CURVE SMOOTH",
"8 25 OFFCURVE",
"33 2 OFFCURVE",
"64 2 CURVE SMOOTH",
"83.661 2 OFFCURVE",
"98.325 12.65 OFFCURVE",
"104 24 CURVE",
"104 0 LINE SMOOTH",
"104 -16 OFFCURVE",
"94 -21 OFFCURVE",
"82 -22 CURVE SMOOTH",
"70 -21 OFFCURVE",
"61 -18 OFFCURVE",
"60 -10 CURVE",
"12 -10 LINE",
"14 -36 OFFCURVE",
"38 -55 OFFCURVE",
"80 -56 CURVE SMOOTH"
);
},
{
closed = 1;
nodes = (
"68 38 OFFCURVE",
"60 53 OFFCURVE",
"60 74 CURVE SMOOTH",
"60 95 OFFCURVE",
"67.964 106 OFFCURVE",
"82 106 CURVE SMOOTH",
"96 106 OFFCURVE",
"104 95 OFFCURVE",
"104 74 CURVE SMOOTH",
"104 53 OFFCURVE",
"96.036 38 OFFCURVE",
"82 38 CURVE SMOOTH"
);
}
);
width = 166;
},
{
layerId = "01F631F0-7691-4ABE-A988-72FCE954A13E";
paths = (
{
closed = 1;
nodes = (
"107.016 -56 OFFCURVE",
"124 -39 OFFCURVE",
"124 -2 CURVE SMOOTH",
"124 144 LINE",
"118 144 LINE",
"118 108 LINE",
"110 131 OFFCURVE",
"93 146 OFFCURVE",
"70 146 CURVE SMOOTH",
"37 146 OFFCURVE",
"16 115 OFFCURVE",
"16 74 CURVE SMOOTH",
"16 32 OFFCURVE",
"37 0 OFFCURVE",
"70 0 CURVE SMOOTH",
"91 0 OFFCURVE",
"110 12 OFFCURVE",
"118 34 CURVE",
"118 -2 LINE SMOOTH",
"118 -36 OFFCURVE",
"104.017 -50 OFFCURVE",
"75 -50 CURVE SMOOTH",
"46 -50 OFFCURVE",
"28 -46 OFFCURVE",
"28 -30 CURVE",
"22 -30 LINE",
"22 -53 OFFCURVE",
"44 -56 OFFCURVE",
"75 -56 CURVE SMOOTH"
);
},
{
closed = 1;
nodes = (
"41 6 OFFCURVE",
"22 36 OFFCURVE",
"22 74 CURVE SMOOTH",
"22 111 OFFCURVE",
"41 140 OFFCURVE",
"70 140 CURVE SMOOTH",
"100 140 OFFCURVE",
"118 111 OFFCURVE",
"118 74 CURVE SMOOTH",
"118 34 OFFCURVE",
"99 6 OFFCURVE",
"70 6 CURVE SMOOTH"
);
}
);
width = 150;
}
);
unicode = 0067;
},
{
glyphname = h;
lastChange = "2020-08-02 20:15:34 +0000";
layers = (
{
layerId = "B7C9AB5D-FCF9-4269-AD58-638C2721BDA6";
paths = (
{
closed = 1;
nodes = (
"42 0 LINE",
"42 88 LINE SMOOTH",
"42 112 OFFCURVE",
"57 126 OFFCURVE",
"78 126 CURVE SMOOTH",
"98 126 OFFCURVE",
"110 113 OFFCURVE",
"110 92 CURVE SMOOTH",
"110 0 LINE",
"132 0 LINE",
"132 92 LINE SMOOTH",
"132 129 OFFCURVE",
"113 146 OFFCURVE",
"84 146 CURVE SMOOTH",
"66.709 146 OFFCURVE",
"52.566 138.436 OFFCURVE",
"42 122 CURVE",
"42 192 LINE",
"20 192 LINE",
"20 0 LINE"
);
}
);
width = 152;
},
{
layerId = "A72BB3A8-8C9B-4C2C-A511-E8018540F19E";
paths = (
{
closed = 1;
nodes = (
"62 0 LINE",
"62 82 LINE SMOOTH",
"62 96.036 OFFCURVE",
"70.962 104 OFFCURVE",
"84 104 CURVE SMOOTH",
"96 104 OFFCURVE",
"104 96.036 OFFCURVE",
"104 82 CURVE SMOOTH",
"104 0 LINE",
"154 0 LINE",
"154 94 LINE SMOOTH",
"154 124 OFFCURVE",
"134 146 OFFCURVE",
"104 146 CURVE SMOOTH",
"83.975 146 OFFCURVE",
"69 135 OFFCURVE",
"62 118 CURVE",
"62 192 LINE",
"12 192 LINE",
"12 0 LINE"
);
}
);
width = 166;
},
{
layerId = "01F631F0-7691-4ABE-A988-72FCE954A13E";
paths = (
{
closed = 1;
nodes = (
"30 0 LINE",
"30 98 LINE SMOOTH",
"30 122.021 OFFCURVE",
"48 140 OFFCURVE",
"74 140 CURVE SMOOTH",
"98 140 OFFCURVE",
"114 123.06 OFFCURVE",
"114 98 CURVE SMOOTH",
"114 0 LINE",
"120 0 LINE",
"120 98 LINE SMOOTH",
"120 126.054 OFFCURVE",
"101.018 146.075 OFFCURVE",
"74 146 CURVE SMOOTH",
"52.828 145.941 OFFCURVE",
"34.752 133.815 OFFCURVE",
"30 118 CURVE",
"30 192 LINE",
"24 192 LINE",
"24 0 LINE"
);
}
);
width = 152;
}
);
unicode = 0068;
},
{
glyphname = i;
lastChange = "2020-08-03 03:31:16 +0000";
layers = (
{
layerId = "B7C9AB5D-FCF9-4269-AD58-638C2721BDA6";
paths = (
{
closed = 1;
nodes = (
"42 0 LINE",
"42 144 LINE",
"20 144 LINE",
"20 0 LINE"
);
},
{
closed = 1;
nodes = (
"42 164 LINE",
"42 192 LINE",
"20 192 LINE",
"20 164 LINE"
);
}
);
width = 60;
},
{
layerId = "A72BB3A8-8C9B-4C2C-A511-E8018540F19E";
paths = (
{
closed = 1;
nodes = (
"62 0 LINE",
"62 144 LINE",
"12 144 LINE",
"12 0 LINE"
);
},
{
closed = 1;
nodes = (
"62 156 LINE",
"62 192 LINE",
"12 192 LINE",
"12 156 LINE"
);
}
);
width = 74;
},
{
layerId = "01F631F0-7691-4ABE-A988-72FCE954A13E";
paths = (
{
closed = 1;
nodes = (
"28 0 LINE",
"28 144 LINE",
"22 144 LINE",
"22 0 LINE"
);
},
{
closed = 1;
nodes = (
"28 158 LINE",
"28 192 LINE",
"22 192 LINE",
"22 158 LINE"
);
}
);
width = 50;
}
);
unicode = 0069;
},
{
glyphname = j;
lastChange = "2020-08-02 20:17:47 +0000";
layers = (
{
layerId = "B7C9AB5D-FCF9-4269-AD58-638C2721BDA6";
paths = (
{
closed = 1;
nodes = (
"28.242 -52 OFFCURVE",
"42 -24.679 OFFCURVE",
"42 0 CURVE SMOOTH",
"42 144 LINE",
"20 144 LINE",
"20 0 LINE SMOOTH",
"20 -20.998 OFFCURVE",
"7.444 -32 OFFCURVE",
"-4 -32 CURVE",
"-4 -52 LINE"
);
},
{
closed = 1;
nodes = (
"42 168 LINE",
"42 192 LINE",
"20 192 LINE",
"20 168 LINE"
);
}
);
width = 60;
},
{
layerId = "A72BB3A8-8C9B-4C2C-A511-E8018540F19E";
paths = (
{
closed = 1;
nodes = (
"47.355 -52 OFFCURVE",
"62 -24.622 OFFCURVE",
"62 0 CURVE SMOOTH",
"62 140 LINE",
"12 140 LINE",
"12 0 LINE SMOOTH",
"12 -9.145 OFFCURVE",
"7.008 -14 OFFCURVE",
"-8 -14 CURVE",
"-8 -52 LINE"
);
},
{
closed = 1;
nodes = (
"62 156 LINE",
"62 192 LINE",
"12 192 LINE",
"12 156 LINE"
);
}
);
width = 74.03;
},
{
layerId = "01F631F0-7691-4ABE-A988-72FCE954A13E";
paths = (
{
closed = 1;
nodes = (
"27.009 -52 OFFCURVE",
"32 -39.445 OFFCURVE",
"32 -20 CURVE SMOOTH",
"32 144 LINE",
"26 144 LINE",
"26 -20 LINE SMOOTH",
"26 -44.552 OFFCURVE",
"10.713 -46.453 OFFCURVE",
"0 -46 CURVE",
"0 -52 LINE"
);
},
{
closed = 1;
nodes = (
"31.854 156.779 LINE",
"31.854 191.779 LINE",
"25.854 191.779 LINE",
"25.854 156.779 LINE"
);
}
);
width = 54;
}
);
unicode = 006A;
},
{
glyphname = k;
lastChange = "2020-08-02 20:17:58 +0000";
layers = (
{
layerId = "B7C9AB5D-FCF9-4269-AD58-638C2721BDA6";
paths = (
{
closed = 1;
nodes = (
"42 0 LINE",
"42 56 LINE",
"56 70 LINE",
"108 0 LINE",
"136 0 LINE",
"72 84 LINE",
"132 144 LINE",
"104 144 LINE",
"42 82 LINE",
"42 192 LINE",
"20 192 LINE",
"20 0 LINE"
);
}
);
width = 140;
},
{
layerId = "A72BB3A8-8C9B-4C2C-A511-E8018540F19E";
paths = (
{
closed = 1;
nodes = (
"62 0 LINE",
"62 42.923 LINE",
"70.077 52.865 LINE",
"98 0 LINE",
"156 0 LINE",
"107.293 82.28 LINE",
"154 144 LINE",
"98 144 LINE",
"62 95 LINE",
"62 192 LINE",
"12 192 LINE",
"12 0 LINE"
);
}
);
width = 156;
},
{
layerId = "01F631F0-7691-4ABE-A988-72FCE954A13E";
paths = (
{
closed = 1;
nodes = (
"30 0 LINE",
"30 60 LINE",
"49.739 79.739 LINE",
"108 0 LINE",
"116 0 LINE",
"53.028 83.965 LINE",
"114 144 LINE",
"106 144 LINE",
"30 68 LINE",
"30 192 LINE",
"24 192 LINE",
"24 0 LINE"
);
}
);
width = 124;
}
);
unicode = 006B;
},
{
glyphname = l;
lastChange = "2020-08-02 04:13:48 +0000";
layers = (
{
layerId = "B7C9AB5D-FCF9-4269-AD58-638C2721BDA6";
paths = (
{
closed = 1;
nodes = (
"42 0 LINE",
"42 192 LINE",
"20 192 LINE",
"20 0 LINE"
);
}
);
width = 60;
},
{
layerId = "A72BB3A8-8C9B-4C2C-A511-E8018540F19E";
paths = (
{
closed = 1;
nodes = (
"62 0 LINE",
"62 192 LINE",
"12 192 LINE",
"12 0 LINE"
);
}
);
width = 74;
},
{
layerId = "01F631F0-7691-4ABE-A988-72FCE954A13E";
paths = (
{
closed = 1;
nodes = (
"30 0 LINE",
"30 192 LINE",
"24 192 LINE",
"24 0 LINE"
);
}
);
width = 54;
}
);
unicode = 006C;
},
{
glyphname = m;
lastChange = "2020-08-02 20:59:52 +0000";
layers = (
{
layerId = "B7C9AB5D-FCF9-4269-AD58-638C2721BDA6";
paths = (
{
closed = 1;
nodes = (
"42 0 LINE",
"42 92 LINE SMOOTH",
"42 112 OFFCURVE",
"56 126 OFFCURVE",
"72 126 CURVE SMOOTH",
"89 126 OFFCURVE",
"100 116 OFFCURVE",
"100 100 CURVE SMOOTH",
"100 0 LINE",
"122 0 LINE",
"122 94 LINE SMOOTH",
"122 113 OFFCURVE",
"133 126 OFFCURVE",
"154 126 CURVE SMOOTH",
"168 126 OFFCURVE",
"182 118 OFFCURVE",
"182 98 CURVE SMOOTH",
"182 0 LINE",
"202 0 LINE",
"202 98 LINE SMOOTH",
"202 130 OFFCURVE",
"185.011 145.326 OFFCURVE",
"160 146 CURVE SMOOTH",
"147.003 146.35 OFFCURVE",
"131.429 140.801 OFFCURVE",
"118 122 CURVE",
"110 137 OFFCURVE",
"98 146 OFFCURVE",
"80 146 CURVE SMOOTH",
"60.444 146 OFFCURVE",
"47.028 135.177 OFFCURVE",
"40 122 CURVE",
"40 144 LINE",
"20 144 LINE",
"20 0 LINE"
);
}
);
width = 222;
},
{
layerId = "A72BB3A8-8C9B-4C2C-A511-E8018540F19E";
paths = (
{
closed = 1;
nodes = (
"62 0 LINE",
"62 86 LINE SMOOTH",
"62 98.042 OFFCURVE",
"68.955 106 OFFCURVE",
"80 106 CURVE SMOOTH",
"90 106 OFFCURVE",
"96 98.042 OFFCURVE",
"96 86 CURVE SMOOTH",
"96 0 LINE",
"144 0 LINE",
"144 86 LINE SMOOTH",
"144 98.042 OFFCURVE",
"151 106 OFFCURVE",
"162 106 CURVE SMOOTH",
"172.05 106 OFFCURVE",
"178 98.042 OFFCURVE",
"178 86 CURVE SMOOTH",
"178 0 LINE",
"228 0 LINE",
"228 98 LINE SMOOTH",
"228 127.017 OFFCURVE",
"210.019 146.072 OFFCURVE",
"184 146 CURVE SMOOTH",
"161.696 145.938 OFFCURVE",
"145.089 131.571 OFFCURVE",
"140 118 CURVE",
"137 134 OFFCURVE",
"121 146 OFFCURVE",
"102 146 CURVE SMOOTH",
"81.045 146 OFFCURVE",
"67.048 132.978 OFFCURVE",
"60 118 CURVE",
"60 144 LINE",
"12 144 LINE",
"12 0 LINE"
);
}
);
width = 240;
},
{
layerId = "01F631F0-7691-4ABE-A988-72FCE954A13E";
paths = (
{
closed = 1;
nodes = (
"30 0 LINE",
"30 98 LINE SMOOTH",
"30 122.021 OFFCURVE",
"44 140 OFFCURVE",
"68 140 CURVE SMOOTH",
"93 140 OFFCURVE",
"104 123 OFFCURVE",
"104 98 CURVE SMOOTH",
"104 0 LINE",
"110 0 LINE",
"110 98 LINE SMOOTH",
"110 122 OFFCURVE",
"123 140 OFFCURVE",
"148 140 CURVE SMOOTH",
"173 140 OFFCURVE",
"184 123.02 OFFCURVE",
"184 98 CURVE SMOOTH",
"184 0 LINE",
"190 0 LINE",
"190 98 LINE SMOOTH",
"190 126.018 OFFCURVE",
"176.018 146 OFFCURVE",
"148 146 CURVE SMOOTH",
"126.423 146 OFFCURVE",
"112.409 132.227 OFFCURVE",
"107 116 CURVE",
"103 134 OFFCURVE",
"90.023 146 OFFCURVE",
"68 146 CURVE SMOOTH",
"49.468 146 OFFCURVE",
"32.209 132.155 OFFCURVE",
"30 119 CURVE",
"30 144 LINE",
"24 144 LINE",
"24 0 LINE"
);
}
);
width = 214;
}
);
unicode = 006D;
},
{
glyphname = n;
lastChange = "2020-08-02 04:16:22 +0000";
layers = (
{
layerId = "B7C9AB5D-FCF9-4269-AD58-638C2721BDA6";
paths = (
{
closed = 1;
nodes = (
"42 112 OFFCURVE",
"56 126 OFFCURVE",
"76 126 CURVE SMOOTH",
"97 126 OFFCURVE",
"108 113 OFFCURVE",
"108 92 CURVE SMOOTH",
"108 0 LINE",
"130 0 LINE",
"130 92 LINE SMOOTH",
"130 128 OFFCURVE",
"111 145 OFFCURVE",
"82 146 CURVE SMOOTH",
"62 145 OFFCURVE",
"49 136 OFFCURVE",
"42 122 CURVE",
"40 122 LINE",
"40 144 LINE",
"20 144 LINE",
"20 0 LINE",
"42 0 LINE",
"42 88 LINE SMOOTH"
);
}
);
width = 150;
},
{
layerId = "A72BB3A8-8C9B-4C2C-A511-E8018540F19E";
paths = (
{
closed = 1;
nodes = (
"63 92 OFFCURVE",
"71 101 OFFCURVE",
"84 100 CURVE SMOOTH",
"96 101 OFFCURVE",
"103 92 OFFCURVE",
"104 78 CURVE SMOOTH",
"104 0 LINE",
"154 0 LINE",
"154 90 LINE SMOOTH",
"154 119 OFFCURVE",
"134 141 OFFCURVE",
"104 142 CURVE SMOOTH",
"84 141 OFFCURVE",
"68 131 OFFCURVE",
"62 114 CURVE",
"60 114 LINE",
"60 140 LINE",
"12 140 LINE",
"12 0 LINE",
"62 0 LINE",
"62 78 LINE SMOOTH"
);
}
);
width = 166;
},
{
layerId = "01F631F0-7691-4ABE-A988-72FCE954A13E";
paths = (
{
closed = 1;
nodes = (
"30 122.021 OFFCURVE",
"48 140 OFFCURVE",
"74 140 CURVE SMOOTH",
"98 140 OFFCURVE",
"114 123 OFFCURVE",
"114 98 CURVE SMOOTH",
"114 0 LINE",
"120 0 LINE",
"120 98 LINE SMOOTH",
"120 126.054 OFFCURVE",
"101 146 OFFCURVE",
"74 146 CURVE SMOOTH",
"53.975 146 OFFCURVE",
"38 136 OFFCURVE",
"32 122 CURVE",
"30 122 LINE",
"30 144 LINE",
"24 144 LINE",
"24 0 LINE",
"30 0 LINE",
"30 98 LINE SMOOTH"
);
}
);
width = 144.04;
}
);
unicode = 006E;
},
{
glyphname = o;
lastChange = "2020-08-02 04:18:22 +0000";
layers = (
{
layerId = "B7C9AB5D-FCF9-4269-AD58-638C2721BDA6";
paths = (
{
closed = 1;
nodes = (
"114 -3 OFFCURVE",
"140 28 OFFCURVE",
"140 72 CURVE SMOOTH",
"140 115 OFFCURVE",
"114 145 OFFCURVE",
"76 146 CURVE SMOOTH",
"39 145 OFFCURVE",
"13 115 OFFCURVE",
"14 72 CURVE SMOOTH",
"13 28 OFFCURVE",
"39 -3 OFFCURVE",
"76 -2 CURVE SMOOTH"
);
},
{
closed = 1;
nodes = (
"48 16 OFFCURVE",
"35 43 OFFCURVE",
"34 72 CURVE SMOOTH",
"35 99 OFFCURVE",
"48 126 OFFCURVE",
"76 126 CURVE SMOOTH",
"105 126 OFFCURVE",
"118 99 OFFCURVE",
"118 72 CURVE SMOOTH",
"118 43 OFFCURVE",
"105 16 OFFCURVE",
"76 16 CURVE SMOOTH"
);
}
);
width = 152;
},
{
layerId = "A72BB3A8-8C9B-4C2C-A511-E8018540F19E";
paths = (
{
closed = 1;
nodes = (
"125 -3 OFFCURVE",
"152 27 OFFCURVE",
"152 70 CURVE SMOOTH",
"152 112 OFFCURVE",
"125 141 OFFCURVE",
"80 142 CURVE SMOOTH",
"35 141 OFFCURVE",
"8 112 OFFCURVE",
"8 70 CURVE SMOOTH",
"8 27 OFFCURVE",
"35 -3 OFFCURVE",
"80 -2 CURVE SMOOTH"
);
},
{
closed = 1;
nodes = (
"67 35 OFFCURVE",
"59 48 OFFCURVE",
"58 70 CURVE SMOOTH",
"59 92 OFFCURVE",
"67 105 OFFCURVE",
"80 106 CURVE SMOOTH",
"93 105 OFFCURVE",
"101 92 OFFCURVE",
"102 70 CURVE SMOOTH",
"101 48 OFFCURVE",
"93 35 OFFCURVE",
"80 34 CURVE SMOOTH"
);
}
);
width = 160;
},
{
layerId = "01F631F0-7691-4ABE-A988-72FCE954A13E";
paths = (
{
closed = 1;
nodes = (
"107 -2 OFFCURVE",
"132 30 OFFCURVE",
"132 72 CURVE SMOOTH",
"132 113 OFFCURVE",
"107 146 OFFCURVE",
"74 146 CURVE SMOOTH",
"41 146 OFFCURVE",
"16 113 OFFCURVE",
"16 72 CURVE SMOOTH",
"16 30 OFFCURVE",
"40.985 -2 OFFCURVE",
"74 -2 CURVE SMOOTH"
);
},
{
closed = 1;
nodes = (
"44.983 2 OFFCURVE",
"22 34 OFFCURVE",
"22 72 CURVE SMOOTH",
"22 109 OFFCURVE",
"45 140 OFFCURVE",
"74 140 CURVE SMOOTH",
"104 140 OFFCURVE",
"126 109 OFFCURVE",
"126 72 CURVE SMOOTH",
"126 34 OFFCURVE",
"104 2 OFFCURVE",
"74 2 CURVE SMOOTH"
);
}
);
width = 152;
}
);
unicode = 006F;
},
{
glyphname = p;
lastChange = "2020-08-03 03:33:53 +0000";
layers = (
{
layerId = "B7C9AB5D-FCF9-4269-AD58-638C2721BDA6";
paths = (
{
closed = 1;
nodes = (
"42 -52 LINE",
"42 20 LINE",
"54.109 2.891 OFFCURVE",
"62.387 -1.8 OFFCURVE",
"84 -2 CURVE SMOOTH",
"119.013 -2.323 OFFCURVE",
"142 27 OFFCURVE",
"142 72 CURVE SMOOTH",
"142 115.012 OFFCURVE",
"119.011 145.513 OFFCURVE",
"84 146 CURVE SMOOTH",
"66.013 146.25 OFFCURVE",
"53.517 144.202 OFFCURVE",
"40 122 CURVE",
"40 144 LINE",
"20 144 LINE",
"20 -52 LINE"
);
},
{
closed = 1;
nodes = (
"55 16 OFFCURVE",
"40 41 OFFCURVE",
"40 72 CURVE SMOOTH",
"40 103.016 OFFCURVE",
"55 126 OFFCURVE",
"80 126 CURVE SMOOTH",
"108 126 OFFCURVE",
"122 101.017 OFFCURVE",
"122 72 CURVE SMOOTH",
"122 42 OFFCURVE",
"108 16 OFFCURVE",
"80 16 CURVE SMOOTH"
);
}
);
width = 156;
},
{
layerId = "A72BB3A8-8C9B-4C2C-A511-E8018540F19E";
paths = (
{
closed = 1;
nodes = (
"62 -52 LINE",
"62 22 LINE",
"67.52 11.749 OFFCURVE",
"81.834 -2 OFFCURVE",
"102 -2 CURVE SMOOTH",
"132 -2 OFFCURVE",
"157.98 21 OFFCURVE",
"158 70 CURVE SMOOTH",
"158.02 120.01 OFFCURVE",
"131.017 145.881 OFFCURVE",
"102 146 CURVE SMOOTH",
"83.511 146.076 OFFCURVE",
"69.137 133.255 OFFCURVE",
"62 120 CURVE",
"62 144 LINE",
"12 144 LINE",
"12 -52 LINE"
);
},
{
closed = 1;
nodes = (
"70 36 OFFCURVE",
"62 49 OFFCURVE",
"62 70 CURVE",
"62 91 OFFCURVE",
"70 106 OFFCURVE",
"84 106 CURVE SMOOTH",
"98.036 106 OFFCURVE",
"106 91 OFFCURVE",
"106 70 CURVE SMOOTH",
"106 49 OFFCURVE",
"98.036 36 OFFCURVE",
"84 36 CURVE SMOOTH"
);
}
);
width = 166;
},
{
layerId = "01F631F0-7691-4ABE-A988-72FCE954A13E";
paths = (
{
closed = 1;
nodes = (
"30 -52 LINE",
"30 34 LINE",
"38 12 OFFCURVE",
"56 -3 OFFCURVE",
"78 -2 CURVE SMOOTH",
"111 -3 OFFCURVE",
"132 28 OFFCURVE",
"132 70 CURVE SMOOTH",
"132 115 OFFCURVE",
"111 146 OFFCURVE",
"78 146 CURVE SMOOTH",
"55 146 OFFCURVE",
"38 131 OFFCURVE",
"30 108 CURVE",
"30 144 LINE",
"24 144 LINE",
"24 -52 LINE"
);
},
{
closed = 1;
nodes = (
"48 3 OFFCURVE",
"30 32 OFFCURVE",
"30 70 CURVE SMOOTH",
"30 111 OFFCURVE",
"48 140 OFFCURVE",
"78 140 CURVE SMOOTH",
"107 140 OFFCURVE",
"126 111 OFFCURVE",
"126 70 CURVE SMOOTH",
"126 32 OFFCURVE",
"107 3 OFFCURVE",
"78 2 CURVE SMOOTH"
);
}
);
width = 148;
}
);
unicode = 0070;
},
{
glyphname = q;
lastChange = "2020-08-03 03:35:25 +0000";
layers = (
{
layerId = "B7C9AB5D-FCF9-4269-AD58-638C2721BDA6";
paths = (
{
closed = 1;
nodes = (
"88.742 -2 OFFCURVE",
"101.635 3.635 OFFCURVE",
"114 22 CURVE",
"114 -52 LINE",
"136 -52 LINE",
"136 144 LINE",
"116 144 LINE",
"116 122 LINE",
"102.507 140.493 OFFCURVE",
"93.092 146 OFFCURVE",
"72 146 CURVE SMOOTH",
"36 146 OFFCURVE",
"14 116.045 OFFCURVE",
"14 72 CURVE SMOOTH",
"14 28 OFFCURVE",
"36 -2 OFFCURVE",
"72 -2 CURVE SMOOTH"
);
},
{
closed = 1;
nodes = (
"48 16 OFFCURVE",
"34 42 OFFCURVE",
"34 72 CURVE SMOOTH",
"34 102 OFFCURVE",
"48 126 OFFCURVE",
"76 126 CURVE SMOOTH",
"100 126 OFFCURVE",
"116 104.062 OFFCURVE",
"116 72 CURVE SMOOTH",
"116 40 OFFCURVE",
"100 16 OFFCURVE",
"76 16 CURVE SMOOTH"
);
}
);
width = 156;
},
{
layerId = "A72BB3A8-8C9B-4C2C-A511-E8018540F19E";
paths = (
{
closed = 1;
nodes = (
"80.479 -2 OFFCURVE",
"95.607 9.41 OFFCURVE",
"104 22 CURVE",
"104 -52 LINE",
"154 -52 LINE",
"154 144 LINE",
"104 144 LINE",
"104 120 LINE",
"96.396 133.306 OFFCURVE",
"83.442 146 OFFCURVE",
"64 146 CURVE SMOOTH",
"34 146 OFFCURVE",
"8 120 OFFCURVE",
"8 70 CURVE SMOOTH",
"8 22 OFFCURVE",
"34 -2 OFFCURVE",
"64 -2 CURVE SMOOTH"
);
},
{
closed = 1;
nodes = (
"67.858 36 OFFCURVE",
"60 50 OFFCURVE",
"60 70 CURVE SMOOTH",
"60 92 OFFCURVE",
"67.858 106 OFFCURVE",
"82 106 CURVE SMOOTH",
"96 106 OFFCURVE",
"104 92 OFFCURVE",
"104 70 CURVE SMOOTH",
"104 50 OFFCURVE",
"96 36 OFFCURVE",
"82 36 CURVE SMOOTH"
);
}
);
width = 166;
},
{
layerId = "01F631F0-7691-4ABE-A988-72FCE954A13E";
paths = (
{
closed = 1;
nodes = (
"92 -2 OFFCURVE",
"110 12 OFFCURVE",
"118 34 CURVE",
"118 -52 LINE",
"124 -52 LINE",
"124 144 LINE",
"118 144 LINE",
"118 108 LINE",
"110 132 OFFCURVE",
"92 146 OFFCURVE",
"70 146 CURVE SMOOTH",
"36 146 OFFCURVE",
"16 112 OFFCURVE",
"16 70 CURVE SMOOTH",
"16 28 OFFCURVE",
"35.941 -2 OFFCURVE",
"70 -2 CURVE SMOOTH"
);
},
{
closed = 1;
nodes = (
"39.933 2 OFFCURVE",
"22 32 OFFCURVE",
"22 70 CURVE SMOOTH",
"22 108 OFFCURVE",
"40 140 OFFCURVE",
"70 140 CURVE SMOOTH",
"100 140 OFFCURVE",
"118 112 OFFCURVE",
"118 70 CURVE SMOOTH",
"118 32 OFFCURVE",
"100 2 OFFCURVE",
"70 2 CURVE SMOOTH"
);
}
);
width = 148;
}
);
unicode = 0071;
},
{
glyphname = r;
lastChange = "2020-08-02 21:06:44 +0000";
layers = (
{
layerId = "B7C9AB5D-FCF9-4269-AD58-638C2721BDA6";
paths = (
{
closed = 1;
nodes = (
"42 0 LINE",
"42 92 LINE SMOOTH",
"42 118.185 OFFCURVE",
"55.944 123.509 OFFCURVE",
"77.949 123.826 CURVE SMOOTH",
"90 124 LINE",
"90 146 LINE",
"66.643 146 OFFCURVE",
"49.093 142.519 OFFCURVE",
"40 122 CURVE",
"40 144 LINE",
"20 144 LINE",
"20 0 LINE"
);
}
);
width = 96;
},
{
layerId = "A72BB3A8-8C9B-4C2C-A511-E8018540F19E";
paths = (
{
closed = 1;
nodes = (
"62 0 LINE",
"62 76 LINE SMOOTH",
"62 93.17 OFFCURVE",
"72.483 104.724 OFFCURVE",
"92.537 104.315 CURVE SMOOTH",
"108 104 LINE",
"108 146 LINE",
"83.105 146.075 OFFCURVE",
"70.303 144.292 OFFCURVE",
"62 118 CURVE",
"62 144 LINE",
"12 144 LINE",
"12 0 LINE"
);
}
);
width = 110;
},
{
layerId = "01F631F0-7691-4ABE-A988-72FCE954A13E";
paths = (
{
closed = 1;
nodes = (
"30 0 LINE",
"30 98 LINE SMOOTH",
"30 122.021 OFFCURVE",
"47 140 OFFCURVE",
"69 140 CURVE SMOOTH",
"75 140 LINE",
"75 146 LINE",
"51.715 145.942 OFFCURVE",
"34.961 134.345 OFFCURVE",
"30 117 CURVE",
"30 144 LINE",
"24 144 LINE",
"24 0 LINE"
);
}
);
width = 84;
}
);
unicode = 0072;
},
{
glyphname = s;
lastChange = "2020-08-02 21:09:04 +0000";
layers = (
{
layerId = "B7C9AB5D-FCF9-4269-AD58-638C2721BDA6";
paths = (
{
closed = 1;
nodes = (
"99.015 -4 OFFCURVE",
"122 14.978 OFFCURVE",
"122 38 CURVE SMOOTH",
"122 58 OFFCURVE",
"112.08 74.384 OFFCURVE",
"84 80 CURVE SMOOTH",
"64 84 LINE SMOOTH",
"47.073 87.385 OFFCURVE",
"40 94.955 OFFCURVE",
"40 106 CURVE SMOOTH",
"40 118 OFFCURVE",
"52 128 OFFCURVE",
"70 128 CURVE SMOOTH",
"88.028 128 OFFCURVE",
"97 117 OFFCURVE",
"100 106 CURVE",
"120 106 LINE",
"118 130 OFFCURVE",
"97.019 146 OFFCURVE",
"70 146 CURVE SMOOTH",
"40 146 OFFCURVE",
"18 129 OFFCURVE",
"18 106 CURVE SMOOTH",
"18 86 OFFCURVE",
"29.058 72.236 OFFCURVE",
"54 66 CURVE SMOOTH",
"78 60 LINE SMOOTH",
"92.125 56.469 OFFCURVE",
"100 47 OFFCURVE",
"100 38 CURVE SMOOTH",
"100 25.958 OFFCURVE",
"86 16 OFFCURVE",
"66 16 CURVE SMOOTH",
"49 16 OFFCURVE",
"37 24 OFFCURVE",
"34 38 CURVE",
"14 38 LINE",
"17 14 OFFCURVE",
"36 -4 OFFCURVE",
"66 -4 CURVE SMOOTH"
);
}
);
width = 134;
},
{
layerId = "A72BB3A8-8C9B-4C2C-A511-E8018540F19E";
paths = (
{
closed = 1;
nodes = (
"115 -2 OFFCURVE",
"144 16 OFFCURVE",
"144 46 CURVE SMOOTH",
"144 67 OFFCURVE",
"129.078 75.296 OFFCURVE",
"102 84 CURVE SMOOTH",
"74 93 LINE SMOOTH",
"62.536 96.685 OFFCURVE",
"60 98.838 OFFCURVE",
"60 102 CURVE SMOOTH",
"60 109 OFFCURVE",
"67 112 OFFCURVE",
"76 112 CURVE SMOOTH",
"85 112 OFFCURVE",
"93 107 OFFCURVE",
"94 98 CURVE",
"140 98 LINE",
"139 128 OFFCURVE",
"115 146 OFFCURVE",
"74 146 CURVE SMOOTH",
"33.988 146 OFFCURVE",
"10 129 OFFCURVE",
"10 100 CURVE SMOOTH",
"10 78 OFFCURVE",
"24.631 67.421 OFFCURVE",
"52 59 CURVE SMOOTH",
"78 51 LINE SMOOTH",
"87.605 48.044 OFFCURVE",
"94 46.083 OFFCURVE",
"94 40 CURVE SMOOTH",
"94 35 OFFCURVE",
"86 32 OFFCURVE",
"78 32 CURVE SMOOTH",
"65.958 32 OFFCURVE",
"58 36 OFFCURVE",
"56 46 CURVE",
"6 46 LINE",
"9 16 OFFCURVE",
"33.988 -2 OFFCURVE",
"76 -2 CURVE SMOOTH"
);
}
);
width = 150;
},
{
layerId = "01F631F0-7691-4ABE-A988-72FCE954A13E";
paths = (
{
closed = 1;
nodes = (
"90 -2 OFFCURVE",
"110 11.979 OFFCURVE",
"110 36 CURVE SMOOTH",
"110 52 OFFCURVE",
"97.652 61.067 OFFCURVE",
"78 70 CURVE SMOOTH",
"56 80 LINE SMOOTH",
"38.324 88.035 OFFCURVE",
"28 94 OFFCURVE",
"28 110 CURVE SMOOTH",
"28 128 OFFCURVE",
"43 140 OFFCURVE",
"66 140 CURVE SMOOTH",
"85 140 OFFCURVE",
"99 131 OFFCURVE",
"102 112 CURVE",
"108 112 LINE",
"106 133 OFFCURVE",
"87 146 OFFCURVE",
"66 146 CURVE SMOOTH",
"40 146 OFFCURVE",
"22 131 OFFCURVE",
"22 110 CURVE SMOOTH",
"22 92 OFFCURVE",
"34.348 82.933 OFFCURVE",
"54 74 CURVE SMOOTH",
"76 64 LINE SMOOTH",
"93.676 55.965 OFFCURVE",
"105 50 OFFCURVE",
"105 36 CURVE SMOOTH",
"105 16 OFFCURVE",
"87 2 OFFCURVE",
"62 2 CURVE SMOOTH",
"40.976 2 OFFCURVE",
"24 14 OFFCURVE",
"22 34 CURVE",
"16.183 33.738 LINE",
"18.183 11.738 OFFCURVE",
"37.979 -2 OFFCURVE",
"62 -2 CURVE SMOOTH"
);
}
);
width = 134;
}
);
unicode = 0073;
},
{
glyphname = t;
lastChange = "2020-08-02 19:20:47 +0000";
layers = (
{
layerId = "B7C9AB5D-FCF9-4269-AD58-638C2721BDA6";
paths = (
{
closed = 1;
nodes = (
"80 0 LINE",
"80 18 LINE",
"70 18 LINE SMOOTH",
"58.9 18 OFFCURVE",
"50 21.889 OFFCURVE",
"50 40 CURVE SMOOTH",
"50 126 LINE",
"80 126 LINE",
"80 144 LINE",
"50 144 LINE",
"50 178 LINE",
"30 178 LINE",
"30 144 LINE",
"8 144 LINE",
"8 126 LINE",
"30 126 LINE",
"30 34 LINE SMOOTH",
"30 10 OFFCURVE",
"50 0 OFFCURVE",
"66 0 CURVE SMOOTH"
);
}
);
width = 94;
},
{
layerId = "A72BB3A8-8C9B-4C2C-A511-E8018540F19E";
paths = (
{
closed = 1;
nodes = (
"92 0 LINE",
"92 36 LINE",
"81 36 LINE SMOOTH",
"75 36 OFFCURVE",
"72 39 OFFCURVE",
"72 45 CURVE SMOOTH",
"72 108 LINE",
"96 108 LINE",
"96 144 LINE",
"72 144 LINE",
"72 180 LINE",
"22 180 LINE",
"22 144 LINE",
"4 144 LINE",
"4 108 LINE",
"22 108 LINE",
"22 40 LINE SMOOTH",
"22 12 OFFCURVE",
"39.927 0 OFFCURVE",
"74 0 CURVE SMOOTH"
);
}
);
width = 104;
},
{
layerId = "01F631F0-7691-4ABE-A988-72FCE954A13E";
paths = (
{
closed = 1;
nodes = (
"68 0 LINE",
"68 6 LINE",
"60 6 LINE SMOOTH",
"47 6 OFFCURVE",
"40 12 OFFCURVE",
"40 32 CURVE SMOOTH",
"40 138 LINE",
"68 138 LINE",
"68 144 LINE",
"40 144 LINE",
"40 174 LINE",
"34 174 LINE",
"34 144 LINE",
"14 144 LINE",
"14 138 LINE",
"34 138 LINE",
"34 30 LINE SMOOTH",
"34 8 OFFCURVE",
"40.726 0 OFFCURVE",
"60 0 CURVE SMOOTH"
);
}
);
width = 89;
}
);
unicode = 0074;
},
{
glyphname = u;
lastChange = "2020-08-02 21:09:42 +0000";
layers = (
{
layerId = "B7C9AB5D-FCF9-4269-AD58-638C2721BDA6";
paths = (
{
closed = 1;
nodes = (
"85.166 -2 OFFCURVE",
"100.243 9.456 OFFCURVE",
"108 24 CURVE",
"108 0 LINE",
"130 0 LINE",
"130 144 LINE",
"108 144 LINE",
"108 58 LINE SMOOTH",
"108 31 OFFCURVE",
"88 19 OFFCURVE",
"72 18 CURVE SMOOTH",
"54 19 OFFCURVE",
"42 32 OFFCURVE",
"42 52 CURVE SMOOTH",
"42 144 LINE",
"20 144 LINE",
"20 50 LINE SMOOTH",
"20 15 OFFCURVE",
"39 -2 OFFCURVE",
"64 -2 CURVE SMOOTH"
);
}
);
width = 148;
},
{
layerId = "A72BB3A8-8C9B-4C2C-A511-E8018540F19E";
paths = (
{
closed = 1;
nodes = (
"82.828 -2 OFFCURVE",
"98.904 10.921 OFFCURVE",
"106 26 CURVE",
"106 0 LINE",
"154 0 LINE",
"154 144 LINE",
"104 144 LINE",
"104 62 LINE SMOOTH",
"104 46.967 OFFCURVE",
"95 38 OFFCURVE",
"82 38 CURVE SMOOTH",
"69.958 38 OFFCURVE",
"62 46.967 OFFCURVE",
"62 62 CURVE SMOOTH",
"62 144 LINE",
"12 144 LINE",
"12 50 LINE SMOOTH",
"12 19.983 OFFCURVE",
"32 -2 OFFCURVE",
"62 -2 CURVE SMOOTH"
);
}
);
width = 166;
},
{
layerId = "01F631F0-7691-4ABE-A988-72FCE954A13E";
paths = (
{
closed = 1;
nodes = (
"92 -2 OFFCURVE",
"108 8 OFFCURVE",
"114 22 CURVE",
"114 0 LINE",
"120 0 LINE",
"120 144 LINE",
"114 144 LINE",
"114 46 LINE SMOOTH",
"114 20.98 OFFCURVE",
"97 4 OFFCURVE",
"72 4 CURVE SMOOTH",
"48 4 OFFCURVE",
"30 20.98 OFFCURVE",
"30 46 CURVE SMOOTH",
"30 144 LINE",
"24 144 LINE",
"24 46 LINE SMOOTH",
"24 17.982 OFFCURVE",
"44 -2 OFFCURVE",
"72 -2 CURVE SMOOTH"
);
}
);
width = 146;
}
);
unicode = 0075;
},
{
glyphname = v;
lastChange = "2020-08-03 03:36:24 +0000";
layers = (
{
layerId = "B7C9AB5D-FCF9-4269-AD58-638C2721BDA6";
paths = (
{
closed = 1;
nodes = (
"82 0 LINE",
"134 144 LINE",
"110 144 LINE",
"71 28 LINE",
"32 144 LINE",
"8 144 LINE",
"60 0 LINE"
);
}
);
width = 142;
},
{
layerId = "A72BB3A8-8C9B-4C2C-A511-E8018540F19E";
paths = (
{
closed = 1;
nodes = (
"106 0 LINE",
"154 144 LINE",
"100 144 LINE",
"77 48 LINE",
"54 144 LINE",
"2 144 LINE",
"48 0 LINE"
);
}
);
width = 156;
},
{
layerId = "01F631F0-7691-4ABE-A988-72FCE954A13E";
paths = (
{
closed = 1;
nodes = (
"70 0 LINE",
"120 144 LINE",
"114 144 LINE",
"66 6 LINE",
"20 144 LINE",
"14 144 LINE",
"62 0 LINE"
);
}
);
width = 134;
}
);
unicode = 0076;
},
{
glyphname = w;
lastChange = "2020-08-02 21:11:17 +0000";
layers = (
{
layerId = "B7C9AB5D-FCF9-4269-AD58-638C2721BDA6";
paths = (
{
closed = 1;
nodes = (
"72 0 LINE",
"104 117 LINE",
"136 0 LINE",
"156 0 LINE",
"200 144 LINE",
"176 144 LINE",
"147 31 LINE",
"116 144 LINE",
"92 144 LINE",
"61 29 LINE",
"32 144 LINE",
"8 144 LINE",
"52 0 LINE"
);
}
);
width = 208;
},
{
layerId = "A72BB3A8-8C9B-4C2C-A511-E8018540F19E";
paths = (
{
closed = 1;
nodes = (
"92 0 LINE",
"112 74 LINE",
"132 0 LINE",
"186 0 LINE",
"222 144 LINE",
"172 144 LINE",
"156 56 LINE",
"136 144 LINE",
"88 144 LINE",
"69 54 LINE",
"52 144 LINE",
"2 144 LINE",
"38 0 LINE"
);
}
);
width = 224;
},
{
layerId = "01F631F0-7691-4ABE-A988-72FCE954A13E";
paths = (
{
closed = 1;
nodes = (
"62 0 LINE",
"101 132 LINE",
"140 0 LINE",
"148 0 LINE",
"190 144 LINE",
"182 144 LINE",
"144 8 LINE",
"104 144 LINE",
"98 144 LINE",
"58 8 LINE",
"20 144 LINE",
"14 144 LINE",
"54 0 LINE"
);
}
);
width = 202;
}
);
unicode = 0077;
},
{
glyphname = x;
lastChange = "2020-08-02 05:39:19 +0000";
layers = (
{
layerId = "B7C9AB5D-FCF9-4269-AD58-638C2721BDA6";
paths = (
{
closed = 1;
nodes = (
"36 0 LINE",
"70 56 LINE",
"102 0 LINE",
"128 0 LINE",
"82 72 LINE",
"128 144 LINE",
"102 144 LINE",
"70 84 LINE",
"36 144 LINE",
"10 144 LINE",
"56 72 LINE",
"10 0 LINE"
);
}
);
width = 138;
},
{
layerId = "A72BB3A8-8C9B-4C2C-A511-E8018540F19E";
paths = (
{
closed = 1;
nodes = (
"54 0 LINE",
"76 46 LINE",
"100 0 LINE",
"150 0 LINE",
"110 72 LINE",
"148 144 LINE",
"98 144 LINE",
"76 98 LINE",
"56 144 LINE",
"6 144 LINE",
"42 72 LINE",
"4 0 LINE"
);
}
);
width = 152;
},
{
layerId = "01F631F0-7691-4ABE-A988-72FCE954A13E";
paths = (
{
closed = 1;
nodes = (
"22 0 LINE",
"64 66 LINE",
"106 0 LINE",
"112 0 LINE",
"68 72 LINE",
"112 144 LINE",
"106 144 LINE",
"64 78 LINE",
"22 144 LINE",
"16 144 LINE",
"60 72 LINE",
"16 0 LINE"
);
}
);
width = 128;
}
);
unicode = 0078;
},
{
glyphname = y;
lastChange = "2020-08-02 21:14:36 +0000";
layers = (
{
layerId = "B7C9AB5D-FCF9-4269-AD58-638C2721BDA6";
paths = (
{
closed = 1;
nodes = (
"34 -50 LINE",
"56 -50 OFFCURVE",
"65.957 -41.984 OFFCURVE",
"74 -20 CURVE SMOOTH",
"134 144 LINE",
"110 144 LINE",
"71 24 LINE",
"32 144 LINE",
"8 144 LINE",
"60 0 LINE",
"52 -22 LINE SMOOTH",
"49.08 -30.03 OFFCURVE",
"44 -32 OFFCURVE",
"24 -32 CURVE",
"24 -50 LINE"
);
}
);
width = 142;
},
{
layerId = "A72BB3A8-8C9B-4C2C-A511-E8018540F19E";
paths = (
{
closed = 1;
nodes = (
"44 -52 LINE",
"78 -52 OFFCURVE",
"94.397 -34.808 OFFCURVE",
"102 -12 CURVE SMOOTH",
"154 144 LINE",
"100 144 LINE",
"77 40 LINE",
"54 144 LINE",
"2 144 LINE",
"50.409 -4 LINE",
"50.409 -9 LINE SMOOTH",
"50.409 -14.53 OFFCURVE",
"39.749 -15.242 OFFCURVE",
"13.61 -15 CURVE",
"14 -52 LINE"
);
}
);
width = 154;
},
{
layerId = "01F631F0-7691-4ABE-A988-72FCE954A13E";
paths = (
{
closed = 1;
nodes = (
"32 -52 LINE",
"45 -52 OFFCURVE",
"56.179 -43.062 OFFCURVE",
"62 -26 CURVE SMOOTH",
"120 144 LINE",
"114 144 LINE",
"67 6 LINE",
"20 144 LINE",
"14 144 LINE",
"64 -2 LINE",
"56 -24 LINE SMOOTH",
"48.759 -43.914 OFFCURVE",
"37.842 -46.936 OFFCURVE",
"16 -46.897 CURVE",
"16 -52 LINE"
);
}
);
width = 134;
}
);
unicode = 0079;
},
{
glyphname = z;
lastChange = "2020-08-02 21:14:58 +0000";
layers = (
{
layerId = "B7C9AB5D-FCF9-4269-AD58-638C2721BDA6";
paths = (
{
closed = 1;
nodes = (
"126 0 LINE",
"126 20 LINE",
"46 20 LINE",
"122 126 LINE",
"122 144 LINE",
"18 144 LINE",
"18 124 LINE",
"94 124 LINE",
"16 16 LINE",
"16 0 LINE"
);
}
);
width = 138;
},
{
layerId = "A72BB3A8-8C9B-4C2C-A511-E8018540F19E";
paths = (
{
closed = 1;
nodes = (
"136 0 LINE",
"136 38 LINE",
"78 38 LINE",
"134 114 LINE",
"134 144 LINE",
"16 144 LINE",
"16 106 LINE",
"76 106 LINE",
"14 28 LINE",
"14 0 LINE"
);
}
);
width = 152;
},
{
layerId = "01F631F0-7691-4ABE-A988-72FCE954A13E";
paths = (
{
closed = 1;
nodes = (
"114 0 LINE",
"114 6 LINE",
"27 6 LINE",
"110 138 LINE",
"110 144 LINE",
"25 144 LINE",
"25 138 LINE",
"103 138 LINE",
"20 6 LINE",
"20 0 LINE"
);
}
);
width = 130;
}
);
unicode = 007A;
},
{
glyphname = zero;
lastChange = "2020-08-02 05:46:44 +0000";
layers = (
{
layerId = "B7C9AB5D-FCF9-4269-AD58-638C2721BDA6";
paths = (
{
closed = 1;
nodes = (
"121.042 -2 OFFCURVE",
"144.03 35 OFFCURVE",
"144.03 97 CURVE SMOOTH",
"144.03 156.008 OFFCURVE",
"121.042 194 OFFCURVE",
"80.03 194 CURVE SMOOTH",
"39.03 194 OFFCURVE",
"16.03 156.008 OFFCURVE",
"16.03 97 CURVE SMOOTH",
"16.03 35 OFFCURVE",
"39.03 -2 OFFCURVE",
"80.03 -2 CURVE SMOOTH"
);
},
{
closed = 1;
nodes = (
"53.03 18 OFFCURVE",
"38.03 48 OFFCURVE",
"38.03 97 CURVE SMOOTH",
"38.03 144.011 OFFCURVE",
"53.03 176 OFFCURVE",
"80.03 176 CURVE SMOOTH",
"107.049 176 OFFCURVE",
"122.03 144.011 OFFCURVE",
"122.03 97 CURVE SMOOTH",
"122.03 48 OFFCURVE",
"107.049 18 OFFCURVE",
"80.03 18 CURVE SMOOTH"
);
}
);
width = 160.06;
},
{
layerId = "A72BB3A8-8C9B-4C2C-A511-E8018540F19E";
paths = (
{
closed = 1;
nodes = (
"144.01 -6 OFFCURVE",
"176 34 OFFCURVE",
"176 95 CURVE SMOOTH",
"176 161 OFFCURVE",
"144 197.02 OFFCURVE",
"94 198 CURVE SMOOTH",
"43 199 OFFCURVE",
"12 161.008 OFFCURVE",
"12 95 CURVE SMOOTH",
"12 34 OFFCURVE",
"43 -6 OFFCURVE",
"94 -6 CURVE SMOOTH"
);
},
{
closed = 1;
nodes = (
"76 36 OFFCURVE",
"64 57 OFFCURVE",
"64 95 CURVE SMOOTH",
"64 138 OFFCURVE",
"76 158 OFFCURVE",
"94 158 CURVE SMOOTH",
"111 158 OFFCURVE",
"124 138.013 OFFCURVE",
"124 95 CURVE SMOOTH",
"124 57 OFFCURVE",
"111 36 OFFCURVE",
"94 36 CURVE SMOOTH"
);
}
);
width = 188;
},
{
layerId = "01F631F0-7691-4ABE-A988-72FCE954A13E";
paths = (
{
closed = 1;
nodes = (
"111 -2 OFFCURVE",
"132 36.992 OFFCURVE",
"132 97 CURVE SMOOTH",
"132 155 OFFCURVE",
"111 194 OFFCURVE",
"76 194 CURVE SMOOTH",
"39.986 194 OFFCURVE",
"19 155 OFFCURVE",
"18 97 CURVE SMOOTH",
"16.966 37 OFFCURVE",
"39.986 -2 OFFCURVE",
"76 -2 CURVE SMOOTH"
);
},
{
closed = 1;
nodes = (
"43.984 4 OFFCURVE",
"24 40 OFFCURVE",
"24 97 CURVE SMOOTH",
"24 152 OFFCURVE",
"43.984 188 OFFCURVE",
"76 188 CURVE SMOOTH",
"107 188 OFFCURVE",
"126 152 OFFCURVE",
"126 97 CURVE SMOOTH",
"126 39.991 OFFCURVE",
"107 4 OFFCURVE",
"76 4 CURVE SMOOTH"
);
}
);
width = 152.03;
}
);
unicode = 0030;
},
{
glyphname = one;
lastChange = "2020-08-02 23:53:35 +0000";
layers = (
{
layerId = "B7C9AB5D-FCF9-4269-AD58-638C2721BDA6";
paths = (
{
closed = 1;
nodes = (
"84 0 LINE",
"84 186 LINE",
"26 186 LINE",
"26 165 LINE",
"62 165 LINE",
"62 0 LINE"
);
}
);
width = 118;
},
{
layerId = "A72BB3A8-8C9B-4C2C-A511-E8018540F19E";
paths = (
{
closed = 1;
nodes = (
"97 0 LINE",
"97 192 LINE",
"12 192 LINE",
"12 146 LINE",
"47 146 LINE",
"47 0 LINE"
);
}
);
width = 123;
},
{
layerId = "01F631F0-7691-4ABE-A988-72FCE954A13E";
paths = (
{
closed = 1;
nodes = (
"66 0 LINE",
"66 192 LINE",
"18 192 LINE",
"18 186 LINE",
"60 186 LINE",
"60 0 LINE"
);
}
);
width = 96;
}
);
unicode = 0031;
},
{
glyphname = two;
lastChange = "2020-08-02 21:17:08 +0000";
layers = (
{
layerId = "B7C9AB5D-FCF9-4269-AD58-638C2721BDA6";
paths = (
{
closed = 1;
nodes = (
"136 0 LINE",
"136 20 LINE",
"49 20 LINE",
"92 72 LINE SMOOTH",
"121.754 107.982 OFFCURVE",
"133 122 OFFCURVE",
"134 144 CURVE SMOOTH",
"133 172 OFFCURVE",
"110 195 OFFCURVE",
"78 194 CURVE SMOOTH",
"45 195 OFFCURVE",
"20 173 OFFCURVE",
"20 140 CURVE",
"42 140 LINE",
"41 161 OFFCURVE",
"55 175 OFFCURVE",
"76 176 CURVE SMOOTH",
"97 175 OFFCURVE",
"112 163 OFFCURVE",
"112 144 CURVE SMOOTH",
"112 126 OFFCURVE",
"100.045 114.722 OFFCURVE",
"80 90 CURVE SMOOTH",
"20 16 LINE",
"20 0 LINE"
);
}
);
width = 154;
},
{
layerId = "A72BB3A8-8C9B-4C2C-A511-E8018540F19E";
paths = (
{
closed = 1;
nodes = (
"156 0 LINE",
"156 40 LINE",
"73 40 LINE",
"128.144 95.291 LINE SMOOTH",
"146.301 114.144 OFFCURVE",
"154 125.097 OFFCURVE",
"154 138 CURVE SMOOTH",
"154 172 OFFCURVE",
"125 194 OFFCURVE",
"80 194 CURVE SMOOTH",
"36.988 194 OFFCURVE",
"9 171 OFFCURVE",
"8 132 CURVE",
"56 132 LINE",
"57 147 OFFCURVE",
"66 156 OFFCURVE",
"80 156 CURVE SMOOTH",
"94 156 OFFCURVE",
"104 147 OFFCURVE",
"104 132 CURVE SMOOTH",
"104 120 OFFCURVE",
"95.14 112.014 OFFCURVE",
"82 100 CURVE SMOOTH",
"12 36 LINE",
"12 0 LINE"
);
}
);
width = 166;
},
{
layerId = "01F631F0-7691-4ABE-A988-72FCE954A13E";
paths = (
{
closed = 1;
nodes = (
"136 0 LINE",
"136 6 LINE",
"32 6 LINE",
"88 72 LINE SMOOTH",
"116.496 105.585 OFFCURVE",
"125 126 OFFCURVE",
"126 146 CURVE SMOOTH",
"125 174 OFFCURVE",
"104 195 OFFCURVE",
"76 194 CURVE SMOOTH",
"47 195 OFFCURVE",
"27 173 OFFCURVE",
"26 146 CURVE",
"32 146 LINE",
"33 169 OFFCURVE",
"51 189 OFFCURVE",
"76 188 CURVE SMOOTH",
"101 189 OFFCURVE",
"119 171 OFFCURVE",
"120 146 CURVE SMOOTH",
"119 128 OFFCURVE",
"110.804 108.165 OFFCURVE",
"84 76 CURVE SMOOTH",
"24 4 LINE",
"24 0 LINE"
);
}
);
width = 158;
}
);
unicode = 0032;
},
{
glyphname = three;
lastChange = "2020-08-02 22:50:51 +0000";
layers = (
{
layerId = "B7C9AB5D-FCF9-4269-AD58-638C2721BDA6";
paths = (
{
closed = 1;
nodes = (
"118 -3 OFFCURVE",
"145 20 OFFCURVE",
"146 50 CURVE SMOOTH",
"145 74 OFFCURVE",
"131 94 OFFCURVE",
"108 99 CURVE",
"126 105 OFFCURVE",
"138 124 OFFCURVE",
"138 144 CURVE SMOOTH",
"138 171 OFFCURVE",
"117 195 OFFCURVE",
"82 194 CURVE SMOOTH",
"51 195 OFFCURVE",
"24 175 OFFCURVE",
"22 146 CURVE",
"44 146 LINE",
"46 164 OFFCURVE",
"63 175 OFFCURVE",
"82 176 CURVE SMOOTH",
"103 175 OFFCURVE",
"116 163 OFFCURVE",
"116 144 CURVE SMOOTH",
"116 124 OFFCURVE",
"101.022 109 OFFCURVE",
"78 109 CURVE SMOOTH",
"64 109 LINE",
"64 89 LINE",
"78 89 LINE SMOOTH",
"107.017 89 OFFCURVE",
"123 71 OFFCURVE",
"122 50 CURVE SMOOTH",
"123 31 OFFCURVE",
"106 17 OFFCURVE",
"82 18 CURVE SMOOTH",
"60 17 OFFCURVE",
"43 29 OFFCURVE",
"42 46 CURVE",
"18 46 LINE",
"20 17 OFFCURVE",
"46 -3 OFFCURVE",
"82 -2 CURVE SMOOTH"
);
}
);
width = 162;
},
{
layerId = "A72BB3A8-8C9B-4C2C-A511-E8018540F19E";
paths = (
{
closed = 1;
nodes = (
"131 -3 OFFCURVE",
"163 21 OFFCURVE",
"162 54 CURVE SMOOTH",
"163.095 78.096 OFFCURVE",
"142.942 95.84 OFFCURVE",
"118 101 CURVE",
"140 102 OFFCURVE",
"156 120 OFFCURVE",
"156 140 CURVE SMOOTH",
"156 172 OFFCURVE",
"127 195 OFFCURVE",
"86 194 CURVE SMOOTH",
"43 195 OFFCURVE",
"13 171 OFFCURVE",
"14 136 CURVE",
"62 136 LINE",
"62 148 OFFCURVE",
"72 156 OFFCURVE",
"86 156 CURVE SMOOTH",
"98 156 OFFCURVE",
"107 148 OFFCURVE",
"106 138 CURVE SMOOTH",
"107 126 OFFCURVE",
"97 115 OFFCURVE",
"82 115 CURVE SMOOTH",
"62 115 LINE",
"62 81 LINE",
"82 81 LINE SMOOTH",
"98.031 81 OFFCURVE",
"109 69 OFFCURVE",
"110 58 CURVE SMOOTH",
"109 46 OFFCURVE",
"99 38 OFFCURVE",
"86 38 CURVE SMOOTH",
"71 38 OFFCURVE",
"61 46 OFFCURVE",
"60 56 CURVE",
"10 56 LINE",
"10 22 OFFCURVE",
"41 -3 OFFCURVE",
"86 -2 CURVE SMOOTH"
);
}
);
width = 172.04;
},
{
layerId = "01F631F0-7691-4ABE-A988-72FCE954A13E";
paths = (
{
closed = 1;
nodes = (
"112 -2 OFFCURVE",
"134 19.982 OFFCURVE",
"134 48 CURVE SMOOTH",
"134 72 OFFCURVE",
"119 93 OFFCURVE",
"94 99 CURVE",
"116 106 OFFCURVE",
"130 125 OFFCURVE",
"130 148 CURVE SMOOTH",
"130 174.019 OFFCURVE",
"108 194 OFFCURVE",
"78 194 CURVE SMOOTH",
"49.982 194 OFFCURVE",
"28 174 OFFCURVE",
"28 146 CURVE",
"34 146 LINE",
"34 171 OFFCURVE",
"52.98 188 OFFCURVE",
"78 188 CURVE SMOOTH",
"105 188 OFFCURVE",
"124 171.022 OFFCURVE",
"124 148 CURVE SMOOTH",
"124 121 OFFCURVE",
"102.018 101 OFFCURVE",
"74 101 CURVE SMOOTH",
"70 101 LINE",
"70 97 LINE",
"74 97 LINE SMOOTH",
"106.016 97 OFFCURVE",
"128 75 OFFCURVE",
"128 48 CURVE SMOOTH",
"128 23.979 OFFCURVE",
"109 4 OFFCURVE",
"80 4 CURVE SMOOTH",
"50.983 4 OFFCURVE",
"30 21 OFFCURVE",
"30 46 CURVE",
"24 46 LINE",
"24 18 OFFCURVE",
"47.984 -2 OFFCURVE",
"80 -2 CURVE SMOOTH"
);
}
);
width = 158.04;
}
);
unicode = 0033;
},
{
glyphname = four;
lastChange = "2020-08-03 02:50:15 +0000";
layers = (
{
layerId = "B7C9AB5D-FCF9-4269-AD58-638C2721BDA6";
paths = (
{
closed = 1;
nodes = (
"124 0 LINE",
"124 42 LINE",
"150 42 LINE",
"150 62 LINE",
"124 62 LINE",
"124 192 LINE",
"96 192 LINE",
"14 60 LINE",
"14 42 LINE",
"102 42 LINE",
"102 0 LINE"
);
},
{
closed = 1;
nodes = (
"102 164 LINE",
"102 62 LINE",
"37 62 LINE"
);
}
);
width = 164;
},
{
layerId = "A72BB3A8-8C9B-4C2C-A511-E8018540F19E";
paths = (
{
closed = 1;
nodes = (
"150 0 LINE",
"150 30 LINE",
"170 30 LINE",
"170 68 LINE",
"150 68 LINE",
"150 192 LINE",
"86 192 LINE",
"10 66 LINE",
"10 30 LINE",
"102 30 LINE",
"102 0 LINE"
);
},
{
closed = 1;
nodes = (
"102 140 LINE",
"102 68 LINE",
"60 68 LINE"
);
}
);
width = 180;
},
{
layerId = "01F631F0-7691-4ABE-A988-72FCE954A13E";
paths = (
{
closed = 1;
nodes = (
"110 0 LINE",
"110 50 LINE",
"134 50 LINE",
"134 56 LINE",
"110 56 LINE",
"110 192 LINE",
"104 192 LINE",
"18 55 LINE",
"18 50 LINE",
"104 50 LINE",
"104 0 LINE"
);
},
{
closed = 1;
nodes = (
"104 180 LINE",
"104 56 LINE",
"26 56 LINE"
);
}
);
width = 152;
}
);
unicode = 0034;
},
{
glyphname = five;
lastChange = "2020-08-02 22:51:32 +0000";
layers = (
{
layerId = "B7C9AB5D-FCF9-4269-AD58-638C2721BDA6";
paths = (
{
closed = 1;
nodes = (
"113 -3 OFFCURVE",
"139 24 OFFCURVE",
"138 60 CURVE SMOOTH",
"139 95 OFFCURVE",
"114 122 OFFCURVE",
"80 122 CURVE SMOOTH",
"68.726 122 OFFCURVE",
"55.088 117.049 OFFCURVE",
"46 112 CURVE",
"54 166 LINE",
"130 166 LINE",
"130 186 LINE",
"36 186 LINE",
"22 94 LINE",
"44 94 LINE",
"51 100 OFFCURVE",
"65 102 OFFCURVE",
"76 102 CURVE SMOOTH",
"100 101 OFFCURVE",
"117 83 OFFCURVE",
"118 58 CURVE SMOOTH",
"117 35 OFFCURVE",
"100 17 OFFCURVE",
"78 18 CURVE SMOOTH",
"58 17 OFFCURVE",
"43 30 OFFCURVE",
"42 46 CURVE",
"20 46 LINE",
"21 18 OFFCURVE",
"45 -3 OFFCURVE",
"78 -2 CURVE SMOOTH"
);
}
);
width = 156;
},
{
layerId = "A72BB3A8-8C9B-4C2C-A511-E8018540F19E";
paths = (
{
closed = 1;
nodes = (
"132 -3 OFFCURVE",
"162 25 OFFCURVE",
"162 64 CURVE SMOOTH",
"162 99 OFFCURVE",
"137 128 OFFCURVE",
"104 128 CURVE SMOOTH",
"84.468 128 OFFCURVE",
"68.877 118.316 OFFCURVE",
"62 108 CURVE",
"66 152 LINE",
"150 152 LINE",
"150 192 LINE",
"26 192 LINE",
"18 88 LINE",
"62 78 LINE",
"66 88 OFFCURVE",
"76 93 OFFCURVE",
"86 94 CURVE SMOOTH",
"102 93 OFFCURVE",
"113 79 OFFCURVE",
"114 62 CURVE SMOOTH",
"113 46 OFFCURVE",
"102 36 OFFCURVE",
"86 36 CURVE SMOOTH",
"74 36 OFFCURVE",
"63 44 OFFCURVE",
"62 56 CURVE",
"14 56 LINE",
"14 22 OFFCURVE",
"44 -3 OFFCURVE",
"86 -2 CURVE SMOOTH"
);
}
);
width = 172;
},
{
layerId = "01F631F0-7691-4ABE-A988-72FCE954A13E";
paths = (
{
closed = 1;
nodes = (
"103 -3 OFFCURVE",
"126 23 OFFCURVE",
"126 58 CURVE SMOOTH",
"126 95 OFFCURVE",
"104 121 OFFCURVE",
"70 122 CURVE SMOOTH",
"60.108 122.291 OFFCURVE",
"45.488 120.264 OFFCURVE",
"32 107 CURVE",
"42 186 LINE",
"120 186 LINE",
"120 192 LINE",
"38 192 LINE",
"26 102 LINE",
"34 100 LINE",
"43 109 OFFCURVE",
"55 116 OFFCURVE",
"70 116 CURVE SMOOTH",
"101 116 OFFCURVE",
"120 96 OFFCURVE",
"120 58 CURVE SMOOTH",
"120 27 OFFCURVE",
"100 3 OFFCURVE",
"70 4 CURVE SMOOTH",
"45 3 OFFCURVE",
"28 21 OFFCURVE",
"28 46 CURVE",
"22 46 LINE",
"22 18 OFFCURVE",
"42 -3 OFFCURVE",
"70 -2 CURVE SMOOTH"
);
}
);
width = 146;
}
);
unicode = 0035;
},
{
glyphname = six;
lastChange = "2020-08-02 05:56:07 +0000";
layers = (
{
layerId = "B7C9AB5D-FCF9-4269-AD58-638C2721BDA6";
paths = (
{
closed = 1;
nodes = (
"119.014 -2 OFFCURVE",
"144 25 OFFCURVE",
"144 60 CURVE SMOOTH",
"144 96.014 OFFCURVE",
"117 122 OFFCURVE",
"84 122 CURVE SMOOTH",
"66 122 OFFCURVE",
"49 111 OFFCURVE",
"38 97 CURVE",
"38 141 OFFCURVE",
"55.983 174 OFFCURVE",
"84 174 CURVE SMOOTH",
"105 174 OFFCURVE",
"115 162 OFFCURVE",
"120 144 CURVE",
"142 144 LINE",
"137 175 OFFCURVE",
"115 194 OFFCURVE",
"84 194 CURVE SMOOTH",
"41.988 194 OFFCURVE",
"16 152 OFFCURVE",
"16 86 CURVE SMOOTH",
"16 17 OFFCURVE",
"51 -2 OFFCURVE",
"82 -2 CURVE SMOOTH"
);
},
{
closed = 1;
nodes = (
"58 18 OFFCURVE",
"40 37 OFFCURVE",
"40 60 CURVE SMOOTH",
"40 82.023 OFFCURVE",
"59 102 OFFCURVE",
"82 102 CURVE SMOOTH",
"105 102 OFFCURVE",
"122 83.022 OFFCURVE",
"122 60 CURVE SMOOTH",
"122 36 OFFCURVE",
"104.023 18 OFFCURVE",
"82 18 CURVE SMOOTH"
);
}
);
width = 160;
},
{
layerId = "A72BB3A8-8C9B-4C2C-A511-E8018540F19E";
paths = (
{
closed = 1;
nodes = (
"134.011 -2 OFFCURVE",
"164 23.988 OFFCURVE",
"164 64 CURVE SMOOTH",
"164 98 OFFCURVE",
"142 123 OFFCURVE",
"108 122 CURVE SMOOTH",
"87 123 OFFCURVE",
"68 113 OFFCURVE",
"60 96 CURVE",
"60 131 OFFCURVE",
"69 152 OFFCURVE",
"90 152 CURVE SMOOTH",
"101 152 OFFCURVE",
"110 145 OFFCURVE",
"112 134 CURVE",
"162 134 LINE",
"159 166 OFFCURVE",
"132.012 194 OFFCURVE",
"90 194 CURVE SMOOTH",
"42 194 OFFCURVE",
"10 156 OFFCURVE",
"10 90 CURVE SMOOTH",
"10 22.993 OFFCURVE",
"47 -2 OFFCURVE",
"90 -2 CURVE SMOOTH"
);
},
{
closed = 1;
nodes = (
"75 36 OFFCURVE",
"64 47 OFFCURVE",
"64 62 CURVE SMOOTH",
"64 78 OFFCURVE",
"74.967 88 OFFCURVE",
"90 88 CURVE SMOOTH",
"105 88 OFFCURVE",
"116 78 OFFCURVE",
"116 62 CURVE SMOOTH",
"116 47 OFFCURVE",
"105 36 OFFCURVE",
"90 36 CURVE SMOOTH"
);
}
);
width = 176;
},
{
layerId = "01F631F0-7691-4ABE-A988-72FCE954A13E";
paths = (
{
closed = 1;
nodes = (
"107 -3 OFFCURVE",
"128 25 OFFCURVE",
"128 56 CURVE SMOOTH",
"128 89 OFFCURVE",
"104 114 OFFCURVE",
"74 114 CURVE SMOOTH",
"45.02 114 OFFCURVE",
"32.175 95.878 OFFCURVE",
"26 80 CURVE",
"27 145 OFFCURVE",
"43.985 188 OFFCURVE",
"78 188 CURVE SMOOTH",
"102 188 OFFCURVE",
"120 168 OFFCURVE",
"120 138 CURVE",
"126 138 LINE",
"126 172 OFFCURVE",
"105 194 OFFCURVE",
"78 194 CURVE SMOOTH",
"32.989 194 OFFCURVE",
"21 135 OFFCURVE",
"20 84 CURVE SMOOTH",
"21 26 OFFCURVE",
"44 -3 OFFCURVE",
"76 -2 CURVE SMOOTH"
);
},
{
closed = 1;
nodes = (
"53 3 OFFCURVE",
"29 28 OFFCURVE",
"29 62 CURVE SMOOTH",
"29 90.636 OFFCURVE",
"46 108 OFFCURVE",
"74 108 CURVE SMOOTH",
"101 108 OFFCURVE",
"122 85 OFFCURVE",
"122 56 CURVE SMOOTH",
"122 26.983 OFFCURVE",
"103 3 OFFCURVE",
"76 4 CURVE SMOOTH"
);
}
);
width = 150;
}
);
unicode = 0036;
},
{
glyphname = seven;
lastChange = "2020-08-02 05:57:03 +0000";
layers = (
{
layerId = "B7C9AB5D-FCF9-4269-AD58-638C2721BDA6";
paths = (
{
closed = 1;
nodes = (
"48 0 LINE",
"132 172 LINE",
"132 192 LINE",
"12 192 LINE",
"12 172 LINE",
"109 172 LINE",
"26 0 LINE"
);
}
);
width = 146;
},
{
layerId = "A72BB3A8-8C9B-4C2C-A511-E8018540F19E";
paths = (
{
closed = 1;
nodes = (
"72 0 LINE",
"146 152 LINE",
"146 192 LINE",
"8 192 LINE",
"8 152 LINE",
"94 152 LINE",
"20 0 LINE"
);
}
);
width = 156;
},
{
layerId = "01F631F0-7691-4ABE-A988-72FCE954A13E";
paths = (
{
closed = 1;
nodes = (
"35 0 LINE",
"122 186 LINE",
"122 192 LINE",
"14 192 LINE",
"14 186 LINE",
"116 186 LINE",
"28 0 LINE"
);
}
);
width = 140;
}
);
unicode = 0037;
},
{
glyphname = eight;
lastChange = "2020-08-02 06:06:45 +0000";
layers = (
{
layerId = "B7C9AB5D-FCF9-4269-AD58-638C2721BDA6";
paths = (
{
closed = 1;
nodes = (
"116.013 -2 OFFCURVE",
"142 19 OFFCURVE",
"142 50 CURVE SMOOTH",
"142 73.826 OFFCURVE",
"123.969 95.508 OFFCURVE",
"106 100 CURVE",
"124 104 OFFCURVE",
"136 125 OFFCURVE",
"136 146 CURVE SMOOTH",
"136 174.018 OFFCURVE",
"111.015 194 OFFCURVE",
"78 194 CURVE SMOOTH",
"46 194 OFFCURVE",
"22 174 OFFCURVE",
"22 146 CURVE SMOOTH",
"22 125 OFFCURVE",
"34 104 OFFCURVE",
"52 100 CURVE",
"35.816 96.147 OFFCURVE",
"16 76.682 OFFCURVE",
"16 50 CURVE SMOOTH",
"16 19 OFFCURVE",
"41 -2 OFFCURVE",
"78 -2 CURVE SMOOTH"
);
},
{
closed = 1;
nodes = (
"53 18 OFFCURVE",
"38 31 OFFCURVE",
"38 50 CURVE SMOOTH",
"38 72 OFFCURVE",
"55 89 OFFCURVE",
"78 89 CURVE SMOOTH",
"102.021 89 OFFCURVE",
"120 72 OFFCURVE",
"120 50 CURVE SMOOTH",
"120 31 OFFCURVE",
"104.019 18 OFFCURVE",
"78 18 CURVE SMOOTH"
);
},
{
closed = 1;
nodes = (
"59 109 OFFCURVE",
"44 125 OFFCURVE",
"44 144 CURVE SMOOTH",
"44 163 OFFCURVE",
"58 176 OFFCURVE",
"78 176 CURVE SMOOTH",
"99.024 176 OFFCURVE",
"114 163.026 OFFCURVE",
"114 144 CURVE SMOOTH",
"114 125 OFFCURVE",
"99 109 OFFCURVE",
"78 109 CURVE SMOOTH"
);
}
);
width = 158;
},
{
layerId = "A72BB3A8-8C9B-4C2C-A511-E8018540F19E";
paths = (
{
closed = 1;
nodes = (
"133 -3 OFFCURVE",
"167 20 OFFCURVE",
"166 50 CURVE SMOOTH",
"167 74 OFFCURVE",
"147 95 OFFCURVE",
"124 100 CURVE",
"144 103 OFFCURVE",
"160 123 OFFCURVE",
"160 144 CURVE SMOOTH",
"160 173 OFFCURVE",
"129 195 OFFCURVE",
"88 194 CURVE SMOOTH",
"47 195 OFFCURVE",
"17 173 OFFCURVE",
"18 144 CURVE SMOOTH",
"17 123 OFFCURVE",
"32 103 OFFCURVE",
"54 100 CURVE",
"29 95 OFFCURVE",
"10 74 OFFCURVE",
"10 50 CURVE SMOOTH",
"10 20 OFFCURVE",
"43 -3 OFFCURVE",
"88 -2 CURVE SMOOTH"
);
},
{
closed = 1;
nodes = (
"74 32 OFFCURVE",
"64 42 OFFCURVE",
"64 54 CURVE SMOOTH",
"64 68 OFFCURVE",
"74 78 OFFCURVE",
"88 78 CURVE SMOOTH",
"103.033 78 OFFCURVE",
"114 68.036 OFFCURVE",
"114 54 CURVE SMOOTH",
"114 42 OFFCURVE",
"103 32 OFFCURVE",
"88 32 CURVE SMOOTH"
);
},
{
closed = 1;
nodes = (
"76 118 OFFCURVE",
"66 127 OFFCURVE",
"66 138 CURVE SMOOTH",
"66 150.042 OFFCURVE",
"76 158 OFFCURVE",
"88 158 CURVE SMOOTH",
"101 158 OFFCURVE",
"110 150 OFFCURVE",
"110 138 CURVE SMOOTH",
"110 127 OFFCURVE",
"101 118 OFFCURVE",
"88 118 CURVE SMOOTH"
);
}
);
width = 176.04;
},
{
layerId = "01F631F0-7691-4ABE-A988-72FCE954A13E";
paths = (
{
closed = 1;
nodes = (
"109.016 -2 OFFCURVE",
"134 20 OFFCURVE",
"134 48 CURVE SMOOTH",
"134 70.023 OFFCURVE",
"120 96 OFFCURVE",
"96 99 CURVE",
"115 105 OFFCURVE",
"128 127 OFFCURVE",
"128 148 CURVE SMOOTH",
"128 174.019 OFFCURVE",
"105 194 OFFCURVE",
"78 194 CURVE SMOOTH",
"48.983 194 OFFCURVE",
"26 174.019 OFFCURVE",
"26 148 CURVE SMOOTH",
"26 127 OFFCURVE",
"39 106 OFFCURVE",
"58 99 CURVE",
"36 94 OFFCURVE",
"20 70.023 OFFCURVE",
"20 48 CURVE SMOOTH",
"20 20 OFFCURVE",
"45 -2 OFFCURVE",
"78 -2 CURVE SMOOTH"
);
},
{
closed = 1;
nodes = (
"48 4 OFFCURVE",
"26 25 OFFCURVE",
"26 48 CURVE SMOOTH",
"26 73.02 OFFCURVE",
"48 96 OFFCURVE",
"78 97 CURVE SMOOTH",
"106 96 OFFCURVE",
"130 73.02 OFFCURVE",
"130 48 CURVE SMOOTH",
"130 24 OFFCURVE",
"106.018 4 OFFCURVE",
"78 4 CURVE SMOOTH"
);
},
{
closed = 1;
nodes = (
"52 102 OFFCURVE",
"32 124 OFFCURVE",
"32 148 CURVE SMOOTH",
"32 171.022 OFFCURVE",
"51.981 188 OFFCURVE",
"78 188 CURVE SMOOTH",
"102 188 OFFCURVE",
"122 171.022 OFFCURVE",
"122 148 CURVE SMOOTH",
"122 124 OFFCURVE",
"102 102 OFFCURVE",
"78 101 CURVE SMOOTH"
);
}
);
width = 154;
}
);
unicode = 0038;
},
{
glyphname = nine;
lastChange = "2020-08-02 22:52:06 +0000";
layers = (
{
layerId = "B7C9AB5D-FCF9-4269-AD58-638C2721BDA6";
paths = (
{
closed = 1;
nodes = (
"117 -2 OFFCURVE",
"144 41 OFFCURVE",
"144 106 CURVE SMOOTH",
"144 175.007 OFFCURVE",
"109 194 OFFCURVE",
"78 194 CURVE SMOOTH",
"40.986 194 OFFCURVE",
"16 167 OFFCURVE",
"16 132 CURVE SMOOTH",
"16 97 OFFCURVE",
"42.984 69.881 OFFCURVE",
"74 70 CURVE SMOOTH",
"95.664 70.083 OFFCURVE",
"112.631 82.373 OFFCURVE",
"122 96 CURVE",
"122 50 OFFCURVE",
"104 18 OFFCURVE",
"76 18 CURVE SMOOTH",
"55.975 18 OFFCURVE",
"44 30 OFFCURVE",
"40 46 CURVE",
"18 46 LINE",
"22 17 OFFCURVE",
"43.984 -2 OFFCURVE",
"76 -2 CURVE SMOOTH"
);
},
{
closed = 1;
nodes = (
"54.978 90 OFFCURVE",
"38 109 OFFCURVE",
"38 132 CURVE SMOOTH",
"38 156 OFFCURVE",
"55.977 174 OFFCURVE",
"78 174 CURVE SMOOTH",
"102 174 OFFCURVE",
"118 155.022 OFFCURVE",
"118 132 CURVE SMOOTH",
"118 111 OFFCURVE",
"101 90 OFFCURVE",
"78 90 CURVE SMOOTH"
);
}
);
width = 160;
},
{
layerId = "A72BB3A8-8C9B-4C2C-A511-E8018540F19E";
paths = (
{
closed = 1;
nodes = (
"134 -3 OFFCURVE",
"166 41 OFFCURVE",
"166 102 CURVE SMOOTH",
"166 169 OFFCURVE",
"129 194 OFFCURVE",
"86 194 CURVE SMOOTH",
"40.989 194 OFFCURVE",
"10 168 OFFCURVE",
"10 128 CURVE SMOOTH",
"10 95 OFFCURVE",
"33 70 OFFCURVE",
"66 70 CURVE SMOOTH",
"90.045 70 OFFCURVE",
"108.416 82.833 OFFCURVE",
"116 98 CURVE",
"115 66 OFFCURVE",
"106 40 OFFCURVE",
"84 40 CURVE SMOOTH",
"74 40 OFFCURVE",
"65 45 OFFCURVE",
"62 56 CURVE",
"12 56 LINE",
"16 24 OFFCURVE",
"43 -3 OFFCURVE",
"84 -2 CURVE SMOOTH"
);
},
{
closed = 1;
nodes = (
"70 104 OFFCURVE",
"60 115 OFFCURVE",
"60 130 CURVE SMOOTH",
"60 145.033 OFFCURVE",
"70 156 OFFCURVE",
"86 156 CURVE SMOOTH",
"100.036 156 OFFCURVE",
"112 145.033 OFFCURVE",
"112 130 CURVE SMOOTH",
"112 115 OFFCURVE",
"100 104 OFFCURVE",
"86 104 CURVE SMOOTH"
);
}
);
width = 176;
},
{
layerId = "01F631F0-7691-4ABE-A988-72FCE954A13E";
paths = (
{
closed = 1;
nodes = (
"116.011 -2 OFFCURVE",
"128 44 OFFCURVE",
"128 119 CURVE SMOOTH",
"128 176 OFFCURVE",
"105 194 OFFCURVE",
"74 194 CURVE SMOOTH",
"41.984 194 OFFCURVE",
"20 169.016 OFFCURVE",
"20 136 CURVE SMOOTH",
"20 102 OFFCURVE",
"42.983 78 OFFCURVE",
"74 78 CURVE SMOOTH",
"104 78 OFFCURVE",
"117 99 OFFCURVE",
"122 117 CURVE",
"123 43 OFFCURVE",
"105.015 4 OFFCURVE",
"72 4 CURVE SMOOTH",
"47 4 OFFCURVE",
"33 21 OFFCURVE",
"30 46 CURVE",
"24 46 LINE",
"26 18 OFFCURVE",
"44 -2 OFFCURVE",
"72 -2 CURVE SMOOTH"
);
},
{
closed = 1;
nodes = (
"45.981 84 OFFCURVE",
"26 105 OFFCURVE",
"26 136 CURVE SMOOTH",
"26 167.017 OFFCURVE",
"45.982 188 OFFCURVE",
"74 188 CURVE SMOOTH",
"96 188 OFFCURVE",
"120 172.757 OFFCURVE",
"120 140 CURVE SMOOTH",
"120 110 OFFCURVE",
"104 84 OFFCURVE",
"74 84 CURVE SMOOTH"
);
}
);
width = 150;
}
);
unicode = 0039;
},
{
glyphname = period;
lastChange = "2020-08-02 23:07:00 +0000";
layers = (
{
layerId = "B7C9AB5D-FCF9-4269-AD58-638C2721BDA6";
paths = (
{
closed = 1;
nodes = (
"44 -2 OFFCURVE",
"52 6 OFFCURVE",
"52 14 CURVE SMOOTH",
"52 24 OFFCURVE",
"44 32 OFFCURVE",
"36 32 CURVE SMOOTH",
"26 32 OFFCURVE",
"18 24 OFFCURVE",
"18 14 CURVE SMOOTH",
"18 6 OFFCURVE",
"26 -2 OFFCURVE",
"36 -2 CURVE SMOOTH"
);
}
);
width = 70;
},
{
layerId = "A72BB3A8-8C9B-4C2C-A511-E8018540F19E";
paths = (
{
closed = 1;
nodes = (
"53 0 OFFCURVE",
"68 15 OFFCURVE",
"68 31 CURVE SMOOTH",
"68 50 OFFCURVE",
"53 66 OFFCURVE",
"37 66 CURVE SMOOTH",
"18 66 OFFCURVE",
"2 50 OFFCURVE",
"2 31 CURVE SMOOTH",
"2 15 OFFCURVE",
"18 0 OFFCURVE",
"37 0 CURVE SMOOTH"
);
}
);
width = 70;
},
{
layerId = "01F631F0-7691-4ABE-A988-72FCE954A13E";
paths = (
{
closed = 1;
nodes = (
"38.618 0.276 OFFCURVE",
"42.724 4.382 OFFCURVE",
"42.724 8.487 CURVE SMOOTH",
"42.724 13.618 OFFCURVE",
"38.618 17.724 OFFCURVE",
"34.513 17.724 CURVE SMOOTH",
"29.382 17.724 OFFCURVE",
"25.276 13.618 OFFCURVE",
"25.276 8.487 CURVE SMOOTH",
"25.276 4.382 OFFCURVE",
"29.382 0.276 OFFCURVE",
"34.513 0.276 CURVE SMOOTH"
);
}
);
width = 70;
}
);
unicode = 002E;
},
{
glyphname = comma;
lastChange = "2020-08-02 23:05:24 +0000";
layers = (
{
layerId = "B7C9AB5D-FCF9-4269-AD58-638C2721BDA6";
paths = (
{
closed = 1;
nodes = (
"23 -30 LINE",
"37.119 -30.253 OFFCURVE",
"46.697 -24.812 OFFCURVE",
"46.843 -0.376 CURVE SMOOTH",
"47 26 LINE",
"23.298 26 LINE",
"23.01 0 LINE",
"31 0 LINE",
"31 -9 LINE SMOOTH",
"31 -19.117 OFFCURVE",
"28.476 -20 OFFCURVE",
"23 -20 CURVE"
);
}
);
width = 72;
},
{
layerId = "A72BB3A8-8C9B-4C2C-A511-E8018540F19E";
paths = (
{
closed = 1;
nodes = (
"23 -32 LINE",
"37.119 -32.253 OFFCURVE",
"56.731 -24.812 OFFCURVE",
"56.843 -0.376 CURVE SMOOTH",
"57 36 LINE",
"23.298 36 LINE",
"23.01 0 LINE",
"35 0 LINE",
"35 -9 LINE SMOOTH",
"35 -19.117 OFFCURVE",
"28.476 -20 OFFCURVE",
"23 -20 CURVE"
);
}
);
width = 82;
},
{
layerId = "01F631F0-7691-4ABE-A988-72FCE954A13E";
paths = (
{
closed = 1;
nodes = (
"23 -30 LINE",
"37.119 -30.253 OFFCURVE",
"41.697 -24.812 OFFCURVE",
"41.843 -0.376 CURVE SMOOTH",
"42 26 LINE",
"23.298 26 LINE",
"23.01 7 LINE",
"31 7 LINE",
"31 -9 LINE SMOOTH",
"31 -19.117 OFFCURVE",
"28.476 -20 OFFCURVE",
"23 -20 CURVE"
);
}
);
width = 66;
}
);
unicode = 002C;
},
{
glyphname = hyphen;
lastChange = "2020-08-02 01:39:11 +0000";
layers = (
{
layerId = "B7C9AB5D-FCF9-4269-AD58-638C2721BDA6";
paths = (
{
closed = 1;
nodes = (
"100 70 LINE",
"100 90 LINE",
"18 90 LINE",
"18 70 LINE"
);
}
);
width = 118;
},
{
layerId = "A72BB3A8-8C9B-4C2C-A511-E8018540F19E";
paths = (
{
closed = 1;
nodes = (
"104 66 LINE",
"104 94 LINE",
"18 94 LINE",
"18 66 LINE"
);
}
);
width = 122;
},
{
layerId = "01F631F0-7691-4ABE-A988-72FCE954A13E";
paths = (
{
closed = 1;
nodes = (
"90 76 LINE",
"90 82 LINE",
"22 82 LINE",
"22 76 LINE"
);
}
);
width = 112;
}
);
unicode = 002D;
},
